<mxfile host="www.draw.io" modified="2019-10-21T10:56:13.678Z" agent="Mozilla/5.0 (Windows NT 6.1; Win64; x64) AppleWebKit/537.36 (KHTML, like Gecko) Chrome/77.0.3865.120 Safari/537.36" etag="0Wx66Lmg8BizTNqif3jx" version="12.1.3" type="github" pages="1">
  <diagram id="POmjwD7YGo67qCqjfjYp" name="Page-1">
    <mxGraphModel dx="1456" dy="793" grid="1" gridSize="10" guides="1" tooltips="1" connect="1" arrows="1" fold="1" page="1" pageScale="1" pageWidth="850" pageHeight="1100" math="0" shadow="0">
      <root>
        <mxCell id="0"/>
        <mxCell id="1" parent="0"/>
        <mxCell id="r7IaGhq_1LEt5sb4c37m-98" value="operational" style="shape=umlFrame;whiteSpace=wrap;html=1;width=110;height=30;" vertex="1" parent="1">
          <mxGeometry x="138.5" y="1090" width="880" height="660" as="geometry"/>
        </mxCell>
        <mxCell id="r7IaGhq_1LEt5sb4c37m-168" value="resource&amp;nbsp;" style="shape=umlFrame;whiteSpace=wrap;html=1;width=70;height=30;" vertex="1" parent="1">
          <mxGeometry x="101" y="580.5" width="670" height="460" as="geometry"/>
        </mxCell>
        <mxCell id="r7IaGhq_1LEt5sb4c37m-317" style="edgeStyle=orthogonalEdgeStyle;rounded=0;orthogonalLoop=1;jettySize=auto;html=1;exitX=0.5;exitY=0;exitDx=0;exitDy=0;entryX=0.474;entryY=1.046;entryDx=0;entryDy=0;entryPerimeter=0;startArrow=ERone;startFill=0;endArrow=ERone;endFill=0;" edge="1" parent="1" source="r7IaGhq_1LEt5sb4c37m-102" target="r7IaGhq_1LEt5sb4c37m-32">
          <mxGeometry relative="1" as="geometry"/>
        </mxCell>
        <mxCell id="r7IaGhq_1LEt5sb4c37m-363" style="edgeStyle=orthogonalEdgeStyle;rounded=0;orthogonalLoop=1;jettySize=auto;html=1;exitX=0.75;exitY=0;exitDx=0;exitDy=0;startArrow=ERmany;startFill=0;endArrow=ERone;endFill=0;entryX=0;entryY=0.5;entryDx=0;entryDy=0;" edge="1" parent="1" source="r7IaGhq_1LEt5sb4c37m-102" target="r7IaGhq_1LEt5sb4c37m-325">
          <mxGeometry relative="1" as="geometry">
            <mxPoint x="951" y="460.5" as="targetPoint"/>
            <Array as="points">
              <mxPoint x="451" y="540.5"/>
              <mxPoint x="841" y="540.5"/>
              <mxPoint x="841" y="443.5"/>
            </Array>
          </mxGeometry>
        </mxCell>
        <mxCell id="r7IaGhq_1LEt5sb4c37m-371" style="edgeStyle=orthogonalEdgeStyle;rounded=0;orthogonalLoop=1;jettySize=auto;html=1;exitX=0.25;exitY=0;exitDx=0;exitDy=0;entryX=1;entryY=0.5;entryDx=0;entryDy=0;startArrow=ERmany;startFill=0;endArrow=ERone;endFill=0;" edge="1" parent="1" source="r7IaGhq_1LEt5sb4c37m-102" target="r7IaGhq_1LEt5sb4c37m-351">
          <mxGeometry relative="1" as="geometry">
            <Array as="points">
              <mxPoint x="370" y="560"/>
              <mxPoint x="70" y="560"/>
              <mxPoint x="70" y="30"/>
              <mxPoint x="1390" y="30"/>
              <mxPoint x="1390" y="588"/>
              <mxPoint x="1280" y="588"/>
            </Array>
          </mxGeometry>
        </mxCell>
        <mxCell id="r7IaGhq_1LEt5sb4c37m-102" value="hub" style="swimlane;fontStyle=0;childLayout=stackLayout;horizontal=1;startSize=26;fillColor=#e0e0e0;horizontalStack=0;resizeParent=1;resizeParentMax=0;resizeLast=0;collapsible=1;marginBottom=0;swimlaneFillColor=#ffffff;align=center;fontSize=14;" vertex="1" parent="1">
          <mxGeometry x="331" y="607.5" width="160" height="196" as="geometry"/>
        </mxCell>
        <mxCell id="r7IaGhq_1LEt5sb4c37m-103" value="hub_id" style="shape=partialRectangle;top=0;left=0;right=0;bottom=0;align=left;verticalAlign=middle;fillColor=none;spacingLeft=34;spacingRight=4;overflow=hidden;rotatable=0;points=[[0,0.5],[1,0.5]];portConstraint=eastwest;dropTarget=0;fontStyle=5;fontSize=12;" vertex="1" parent="r7IaGhq_1LEt5sb4c37m-102">
          <mxGeometry y="26" width="160" height="30" as="geometry"/>
        </mxCell>
        <mxCell id="r7IaGhq_1LEt5sb4c37m-104" value="PK" style="shape=partialRectangle;top=0;left=0;bottom=0;fillColor=none;align=left;verticalAlign=middle;spacingLeft=4;spacingRight=4;overflow=hidden;rotatable=0;points=[];portConstraint=eastwest;part=1;fontSize=12;" vertex="1" connectable="0" parent="r7IaGhq_1LEt5sb4c37m-103">
          <mxGeometry width="30" height="30" as="geometry"/>
        </mxCell>
        <mxCell id="r7IaGhq_1LEt5sb4c37m-105" value="address_id" style="shape=partialRectangle;top=0;left=0;right=0;bottom=1;align=left;verticalAlign=top;fillColor=none;spacingLeft=34;spacingRight=4;overflow=hidden;rotatable=0;points=[[0,0.5],[1,0.5]];portConstraint=eastwest;dropTarget=0;fontSize=12;fontStyle=5" vertex="1" parent="r7IaGhq_1LEt5sb4c37m-102">
          <mxGeometry y="56" width="160" height="26" as="geometry"/>
        </mxCell>
        <mxCell id="r7IaGhq_1LEt5sb4c37m-106" value="FK" style="shape=partialRectangle;top=0;left=0;bottom=0;fillColor=none;align=left;verticalAlign=top;spacingLeft=4;spacingRight=4;overflow=hidden;rotatable=0;points=[];portConstraint=eastwest;part=1;fontSize=12;" vertex="1" connectable="0" parent="r7IaGhq_1LEt5sb4c37m-105">
          <mxGeometry width="30" height="26" as="geometry"/>
        </mxCell>
        <mxCell id="r7IaGhq_1LEt5sb4c37m-107" value="type" style="shape=partialRectangle;top=0;left=0;right=0;bottom=0;align=left;verticalAlign=top;fillColor=none;spacingLeft=34;spacingRight=4;overflow=hidden;rotatable=0;points=[[0,0.5],[1,0.5]];portConstraint=eastwest;dropTarget=0;fontSize=12;fontStyle=0" vertex="1" parent="r7IaGhq_1LEt5sb4c37m-102">
          <mxGeometry y="82" width="160" height="26" as="geometry"/>
        </mxCell>
        <mxCell id="r7IaGhq_1LEt5sb4c37m-108" value="" style="shape=partialRectangle;top=0;left=0;bottom=0;fillColor=none;align=left;verticalAlign=top;spacingLeft=4;spacingRight=4;overflow=hidden;rotatable=0;points=[];portConstraint=eastwest;part=1;fontSize=12;" vertex="1" connectable="0" parent="r7IaGhq_1LEt5sb4c37m-107">
          <mxGeometry width="30" height="26" as="geometry"/>
        </mxCell>
        <mxCell id="r7IaGhq_1LEt5sb4c37m-109" value="name" style="shape=partialRectangle;top=0;left=0;right=0;bottom=0;align=left;verticalAlign=top;fillColor=none;spacingLeft=34;spacingRight=4;overflow=hidden;rotatable=0;points=[[0,0.5],[1,0.5]];portConstraint=eastwest;dropTarget=0;fontSize=12;" vertex="1" parent="r7IaGhq_1LEt5sb4c37m-102">
          <mxGeometry y="108" width="160" height="26" as="geometry"/>
        </mxCell>
        <mxCell id="r7IaGhq_1LEt5sb4c37m-110" value="" style="shape=partialRectangle;top=0;left=0;bottom=0;fillColor=none;align=left;verticalAlign=top;spacingLeft=4;spacingRight=4;overflow=hidden;rotatable=0;points=[];portConstraint=eastwest;part=1;fontSize=12;" vertex="1" connectable="0" parent="r7IaGhq_1LEt5sb4c37m-109">
          <mxGeometry width="30" height="26" as="geometry"/>
        </mxCell>
        <mxCell id="r7IaGhq_1LEt5sb4c37m-357" value="phone" style="shape=partialRectangle;top=0;left=0;right=0;bottom=0;align=left;verticalAlign=top;fillColor=none;spacingLeft=34;spacingRight=4;overflow=hidden;rotatable=0;points=[[0,0.5],[1,0.5]];portConstraint=eastwest;dropTarget=0;fontSize=12;" vertex="1" parent="r7IaGhq_1LEt5sb4c37m-102">
          <mxGeometry y="134" width="160" height="26" as="geometry"/>
        </mxCell>
        <mxCell id="r7IaGhq_1LEt5sb4c37m-358" value="" style="shape=partialRectangle;top=0;left=0;bottom=0;fillColor=none;align=left;verticalAlign=top;spacingLeft=4;spacingRight=4;overflow=hidden;rotatable=0;points=[];portConstraint=eastwest;part=1;fontSize=12;" vertex="1" connectable="0" parent="r7IaGhq_1LEt5sb4c37m-357">
          <mxGeometry width="30" height="26" as="geometry"/>
        </mxCell>
        <mxCell id="r7IaGhq_1LEt5sb4c37m-290" value="phone" style="shape=partialRectangle;top=0;left=0;right=0;bottom=0;align=left;verticalAlign=top;fillColor=none;spacingLeft=34;spacingRight=4;overflow=hidden;rotatable=0;points=[[0,0.5],[1,0.5]];portConstraint=eastwest;dropTarget=0;fontSize=12;" vertex="1" parent="r7IaGhq_1LEt5sb4c37m-102">
          <mxGeometry y="160" width="160" height="26" as="geometry"/>
        </mxCell>
        <mxCell id="r7IaGhq_1LEt5sb4c37m-291" value="" style="shape=partialRectangle;top=0;left=0;bottom=0;fillColor=none;align=left;verticalAlign=top;spacingLeft=4;spacingRight=4;overflow=hidden;rotatable=0;points=[];portConstraint=eastwest;part=1;fontSize=12;" vertex="1" connectable="0" parent="r7IaGhq_1LEt5sb4c37m-290">
          <mxGeometry width="30" height="26" as="geometry"/>
        </mxCell>
        <mxCell id="r7IaGhq_1LEt5sb4c37m-111" value="" style="shape=partialRectangle;top=0;left=0;right=0;bottom=0;align=left;verticalAlign=top;fillColor=none;spacingLeft=34;spacingRight=4;overflow=hidden;rotatable=0;points=[[0,0.5],[1,0.5]];portConstraint=eastwest;dropTarget=0;fontSize=12;" vertex="1" parent="r7IaGhq_1LEt5sb4c37m-102">
          <mxGeometry y="186" width="160" height="10" as="geometry"/>
        </mxCell>
        <mxCell id="r7IaGhq_1LEt5sb4c37m-112" value="" style="shape=partialRectangle;top=0;left=0;bottom=0;fillColor=none;align=left;verticalAlign=top;spacingLeft=4;spacingRight=4;overflow=hidden;rotatable=0;points=[];portConstraint=eastwest;part=1;fontSize=12;" vertex="1" connectable="0" parent="r7IaGhq_1LEt5sb4c37m-111">
          <mxGeometry width="30" height="10" as="geometry"/>
        </mxCell>
        <mxCell id="r7IaGhq_1LEt5sb4c37m-91" value="area" style="shape=umlFrame;whiteSpace=wrap;html=1;" vertex="1" parent="1">
          <mxGeometry x="111" y="80.5" width="680" height="430" as="geometry"/>
        </mxCell>
        <mxCell id="r7IaGhq_1LEt5sb4c37m-1" value="provice" style="swimlane;fontStyle=0;childLayout=stackLayout;horizontal=1;startSize=26;fillColor=#e0e0e0;horizontalStack=0;resizeParent=1;resizeParentMax=0;resizeLast=0;collapsible=1;marginBottom=0;swimlaneFillColor=#ffffff;align=center;fontSize=14;" vertex="1" parent="1">
          <mxGeometry x="351" y="110.5" width="160" height="92" as="geometry"/>
        </mxCell>
        <mxCell id="r7IaGhq_1LEt5sb4c37m-2" value="provice_id" style="shape=partialRectangle;top=0;left=0;right=0;bottom=1;align=left;verticalAlign=middle;fillColor=none;spacingLeft=34;spacingRight=4;overflow=hidden;rotatable=0;points=[[0,0.5],[1,0.5]];portConstraint=eastwest;dropTarget=0;fontStyle=5;fontSize=12;" vertex="1" parent="r7IaGhq_1LEt5sb4c37m-1">
          <mxGeometry y="26" width="160" height="30" as="geometry"/>
        </mxCell>
        <mxCell id="r7IaGhq_1LEt5sb4c37m-3" value="PK" style="shape=partialRectangle;top=0;left=0;bottom=0;fillColor=none;align=left;verticalAlign=middle;spacingLeft=4;spacingRight=4;overflow=hidden;rotatable=0;points=[];portConstraint=eastwest;part=1;fontSize=12;" vertex="1" connectable="0" parent="r7IaGhq_1LEt5sb4c37m-2">
          <mxGeometry width="30" height="30" as="geometry"/>
        </mxCell>
        <mxCell id="r7IaGhq_1LEt5sb4c37m-4" value="name" style="shape=partialRectangle;top=0;left=0;right=0;bottom=0;align=left;verticalAlign=top;fillColor=none;spacingLeft=34;spacingRight=4;overflow=hidden;rotatable=0;points=[[0,0.5],[1,0.5]];portConstraint=eastwest;dropTarget=0;fontSize=12;" vertex="1" parent="r7IaGhq_1LEt5sb4c37m-1">
          <mxGeometry y="56" width="160" height="26" as="geometry"/>
        </mxCell>
        <mxCell id="r7IaGhq_1LEt5sb4c37m-5" value="" style="shape=partialRectangle;top=0;left=0;bottom=0;fillColor=none;align=left;verticalAlign=top;spacingLeft=4;spacingRight=4;overflow=hidden;rotatable=0;points=[];portConstraint=eastwest;part=1;fontSize=12;" vertex="1" connectable="0" parent="r7IaGhq_1LEt5sb4c37m-4">
          <mxGeometry width="30" height="26" as="geometry"/>
        </mxCell>
        <mxCell id="r7IaGhq_1LEt5sb4c37m-10" value="" style="shape=partialRectangle;top=0;left=0;right=0;bottom=0;align=left;verticalAlign=top;fillColor=none;spacingLeft=34;spacingRight=4;overflow=hidden;rotatable=0;points=[[0,0.5],[1,0.5]];portConstraint=eastwest;dropTarget=0;fontSize=12;" vertex="1" parent="r7IaGhq_1LEt5sb4c37m-1">
          <mxGeometry y="82" width="160" height="10" as="geometry"/>
        </mxCell>
        <mxCell id="r7IaGhq_1LEt5sb4c37m-11" value="" style="shape=partialRectangle;top=0;left=0;bottom=0;fillColor=none;align=left;verticalAlign=top;spacingLeft=4;spacingRight=4;overflow=hidden;rotatable=0;points=[];portConstraint=eastwest;part=1;fontSize=12;" vertex="1" connectable="0" parent="r7IaGhq_1LEt5sb4c37m-10">
          <mxGeometry width="30" height="10" as="geometry"/>
        </mxCell>
        <mxCell id="r7IaGhq_1LEt5sb4c37m-12" value="city" style="swimlane;fontStyle=0;childLayout=stackLayout;horizontal=1;startSize=26;fillColor=#e0e0e0;horizontalStack=0;resizeParent=1;resizeParentMax=0;resizeLast=0;collapsible=1;marginBottom=0;swimlaneFillColor=#ffffff;align=center;fontSize=14;" vertex="1" parent="1">
          <mxGeometry x="571" y="244.5" width="160" height="126" as="geometry"/>
        </mxCell>
        <mxCell id="r7IaGhq_1LEt5sb4c37m-13" value="city_id" style="shape=partialRectangle;top=0;left=0;right=0;bottom=0;align=left;verticalAlign=middle;fillColor=none;spacingLeft=34;spacingRight=4;overflow=hidden;rotatable=0;points=[[0,0.5],[1,0.5]];portConstraint=eastwest;dropTarget=0;fontStyle=5;fontSize=12;" vertex="1" parent="r7IaGhq_1LEt5sb4c37m-12">
          <mxGeometry y="26" width="160" height="30" as="geometry"/>
        </mxCell>
        <mxCell id="r7IaGhq_1LEt5sb4c37m-14" value="PK" style="shape=partialRectangle;top=0;left=0;bottom=0;fillColor=none;align=left;verticalAlign=middle;spacingLeft=4;spacingRight=4;overflow=hidden;rotatable=0;points=[];portConstraint=eastwest;part=1;fontSize=12;" vertex="1" connectable="0" parent="r7IaGhq_1LEt5sb4c37m-13">
          <mxGeometry width="30" height="30" as="geometry"/>
        </mxCell>
        <mxCell id="r7IaGhq_1LEt5sb4c37m-80" value="region_id" style="shape=partialRectangle;top=0;left=0;right=0;bottom=0;align=left;verticalAlign=middle;fillColor=none;spacingLeft=34;spacingRight=4;overflow=hidden;rotatable=0;points=[[0,0.5],[1,0.5]];portConstraint=eastwest;dropTarget=0;fontStyle=5;fontSize=12;" vertex="1" parent="r7IaGhq_1LEt5sb4c37m-12">
          <mxGeometry y="56" width="160" height="30" as="geometry"/>
        </mxCell>
        <mxCell id="r7IaGhq_1LEt5sb4c37m-81" value="PK" style="shape=partialRectangle;top=0;left=0;bottom=0;fillColor=none;align=left;verticalAlign=middle;spacingLeft=4;spacingRight=4;overflow=hidden;rotatable=0;points=[];portConstraint=eastwest;part=1;fontSize=12;" vertex="1" connectable="0" parent="r7IaGhq_1LEt5sb4c37m-80">
          <mxGeometry width="30" height="30" as="geometry"/>
        </mxCell>
        <mxCell id="r7IaGhq_1LEt5sb4c37m-86" value="province_id" style="shape=partialRectangle;top=0;left=0;right=0;bottom=1;align=left;verticalAlign=middle;fillColor=none;spacingLeft=34;spacingRight=4;overflow=hidden;rotatable=0;points=[[0,0.5],[1,0.5]];portConstraint=eastwest;dropTarget=0;fontStyle=5;fontSize=12;" vertex="1" parent="r7IaGhq_1LEt5sb4c37m-12">
          <mxGeometry y="86" width="160" height="30" as="geometry"/>
        </mxCell>
        <mxCell id="r7IaGhq_1LEt5sb4c37m-87" value="PK" style="shape=partialRectangle;top=0;left=0;bottom=0;fillColor=none;align=left;verticalAlign=middle;spacingLeft=4;spacingRight=4;overflow=hidden;rotatable=0;points=[];portConstraint=eastwest;part=1;fontSize=12;" vertex="1" connectable="0" parent="r7IaGhq_1LEt5sb4c37m-86">
          <mxGeometry width="30" height="30" as="geometry"/>
        </mxCell>
        <mxCell id="r7IaGhq_1LEt5sb4c37m-21" value="" style="shape=partialRectangle;top=0;left=0;right=0;bottom=0;align=left;verticalAlign=top;fillColor=none;spacingLeft=34;spacingRight=4;overflow=hidden;rotatable=0;points=[[0,0.5],[1,0.5]];portConstraint=eastwest;dropTarget=0;fontSize=12;" vertex="1" parent="r7IaGhq_1LEt5sb4c37m-12">
          <mxGeometry y="116" width="160" height="10" as="geometry"/>
        </mxCell>
        <mxCell id="r7IaGhq_1LEt5sb4c37m-22" value="" style="shape=partialRectangle;top=0;left=0;bottom=0;fillColor=none;align=left;verticalAlign=top;spacingLeft=4;spacingRight=4;overflow=hidden;rotatable=0;points=[];portConstraint=eastwest;part=1;fontSize=12;" vertex="1" connectable="0" parent="r7IaGhq_1LEt5sb4c37m-21">
          <mxGeometry width="30" height="10" as="geometry"/>
        </mxCell>
        <mxCell id="r7IaGhq_1LEt5sb4c37m-79" style="edgeStyle=orthogonalEdgeStyle;rounded=0;orthogonalLoop=1;jettySize=auto;html=1;entryX=0.493;entryY=0.974;entryDx=0;entryDy=0;entryPerimeter=0;startArrow=ERone;startFill=0;endArrow=ERmany;endFill=0;" edge="1" parent="1" target="r7IaGhq_1LEt5sb4c37m-59">
          <mxGeometry relative="1" as="geometry">
            <mxPoint x="220" y="240.5" as="sourcePoint"/>
            <Array as="points">
              <mxPoint x="220" y="250.5"/>
            </Array>
          </mxGeometry>
        </mxCell>
        <mxCell id="r7IaGhq_1LEt5sb4c37m-23" value="address" style="swimlane;fontStyle=0;childLayout=stackLayout;horizontal=1;startSize=26;fillColor=#e0e0e0;horizontalStack=0;resizeParent=1;resizeParentMax=0;resizeLast=0;collapsible=1;marginBottom=0;swimlaneFillColor=#ffffff;align=center;fontSize=14;" vertex="1" parent="1">
          <mxGeometry x="141" y="250.5" width="160" height="208" as="geometry"/>
        </mxCell>
        <mxCell id="r7IaGhq_1LEt5sb4c37m-24" value="address_id" style="shape=partialRectangle;top=0;left=0;right=0;bottom=0;align=left;verticalAlign=middle;fillColor=none;spacingLeft=34;spacingRight=4;overflow=hidden;rotatable=0;points=[[0,0.5],[1,0.5]];portConstraint=eastwest;dropTarget=0;fontStyle=5;fontSize=12;" vertex="1" parent="r7IaGhq_1LEt5sb4c37m-23">
          <mxGeometry y="26" width="160" height="30" as="geometry"/>
        </mxCell>
        <mxCell id="r7IaGhq_1LEt5sb4c37m-25" value="PK" style="shape=partialRectangle;top=0;left=0;bottom=0;fillColor=none;align=left;verticalAlign=middle;spacingLeft=4;spacingRight=4;overflow=hidden;rotatable=0;points=[];portConstraint=eastwest;part=1;fontSize=12;" vertex="1" connectable="0" parent="r7IaGhq_1LEt5sb4c37m-24">
          <mxGeometry width="30" height="30" as="geometry"/>
        </mxCell>
        <mxCell id="r7IaGhq_1LEt5sb4c37m-72" value="region_id" style="shape=partialRectangle;top=0;left=0;right=0;bottom=0;align=left;verticalAlign=middle;fillColor=none;spacingLeft=34;spacingRight=4;overflow=hidden;rotatable=0;points=[[0,0.5],[1,0.5]];portConstraint=eastwest;dropTarget=0;fontStyle=5;fontSize=12;" vertex="1" parent="r7IaGhq_1LEt5sb4c37m-23">
          <mxGeometry y="56" width="160" height="30" as="geometry"/>
        </mxCell>
        <mxCell id="r7IaGhq_1LEt5sb4c37m-73" value="FK" style="shape=partialRectangle;top=0;left=0;bottom=0;fillColor=none;align=left;verticalAlign=middle;spacingLeft=4;spacingRight=4;overflow=hidden;rotatable=0;points=[];portConstraint=eastwest;part=1;fontSize=12;" vertex="1" connectable="0" parent="r7IaGhq_1LEt5sb4c37m-72">
          <mxGeometry width="30" height="30" as="geometry"/>
        </mxCell>
        <mxCell id="r7IaGhq_1LEt5sb4c37m-74" value="provice_id" style="shape=partialRectangle;top=0;left=0;right=0;bottom=0;align=left;verticalAlign=middle;fillColor=none;spacingLeft=34;spacingRight=4;overflow=hidden;rotatable=0;points=[[0,0.5],[1,0.5]];portConstraint=eastwest;dropTarget=0;fontStyle=5;fontSize=12;" vertex="1" parent="r7IaGhq_1LEt5sb4c37m-23">
          <mxGeometry y="86" width="160" height="30" as="geometry"/>
        </mxCell>
        <mxCell id="r7IaGhq_1LEt5sb4c37m-75" value="FK" style="shape=partialRectangle;top=0;left=0;bottom=0;fillColor=none;align=left;verticalAlign=middle;spacingLeft=4;spacingRight=4;overflow=hidden;rotatable=0;points=[];portConstraint=eastwest;part=1;fontSize=12;" vertex="1" connectable="0" parent="r7IaGhq_1LEt5sb4c37m-74">
          <mxGeometry width="30" height="30" as="geometry"/>
        </mxCell>
        <mxCell id="r7IaGhq_1LEt5sb4c37m-76" value="country_id" style="shape=partialRectangle;top=0;left=0;right=0;bottom=1;align=left;verticalAlign=middle;fillColor=none;spacingLeft=34;spacingRight=4;overflow=hidden;rotatable=0;points=[[0,0.5],[1,0.5]];portConstraint=eastwest;dropTarget=0;fontStyle=5;fontSize=12;" vertex="1" parent="r7IaGhq_1LEt5sb4c37m-23">
          <mxGeometry y="116" width="160" height="30" as="geometry"/>
        </mxCell>
        <mxCell id="r7IaGhq_1LEt5sb4c37m-77" value="FK" style="shape=partialRectangle;top=0;left=0;bottom=0;fillColor=none;align=left;verticalAlign=middle;spacingLeft=4;spacingRight=4;overflow=hidden;rotatable=0;points=[];portConstraint=eastwest;part=1;fontSize=12;" vertex="1" connectable="0" parent="r7IaGhq_1LEt5sb4c37m-76">
          <mxGeometry width="30" height="30" as="geometry"/>
        </mxCell>
        <mxCell id="r7IaGhq_1LEt5sb4c37m-26" value="name" style="shape=partialRectangle;top=0;left=0;right=0;bottom=0;align=left;verticalAlign=top;fillColor=none;spacingLeft=34;spacingRight=4;overflow=hidden;rotatable=0;points=[[0,0.5],[1,0.5]];portConstraint=eastwest;dropTarget=0;fontSize=12;" vertex="1" parent="r7IaGhq_1LEt5sb4c37m-23">
          <mxGeometry y="146" width="160" height="26" as="geometry"/>
        </mxCell>
        <mxCell id="r7IaGhq_1LEt5sb4c37m-27" value="" style="shape=partialRectangle;top=0;left=0;bottom=0;fillColor=none;align=left;verticalAlign=top;spacingLeft=4;spacingRight=4;overflow=hidden;rotatable=0;points=[];portConstraint=eastwest;part=1;fontSize=12;" vertex="1" connectable="0" parent="r7IaGhq_1LEt5sb4c37m-26">
          <mxGeometry width="30" height="26" as="geometry"/>
        </mxCell>
        <mxCell id="r7IaGhq_1LEt5sb4c37m-28" value="zip" style="shape=partialRectangle;top=0;left=0;right=0;bottom=0;align=left;verticalAlign=top;fillColor=none;spacingLeft=34;spacingRight=4;overflow=hidden;rotatable=0;points=[[0,0.5],[1,0.5]];portConstraint=eastwest;dropTarget=0;fontSize=12;" vertex="1" parent="r7IaGhq_1LEt5sb4c37m-23">
          <mxGeometry y="172" width="160" height="26" as="geometry"/>
        </mxCell>
        <mxCell id="r7IaGhq_1LEt5sb4c37m-29" value="" style="shape=partialRectangle;top=0;left=0;bottom=0;fillColor=none;align=left;verticalAlign=top;spacingLeft=4;spacingRight=4;overflow=hidden;rotatable=0;points=[];portConstraint=eastwest;part=1;fontSize=12;" vertex="1" connectable="0" parent="r7IaGhq_1LEt5sb4c37m-28">
          <mxGeometry width="30" height="26" as="geometry"/>
        </mxCell>
        <mxCell id="r7IaGhq_1LEt5sb4c37m-32" value="" style="shape=partialRectangle;top=0;left=0;right=0;bottom=0;align=left;verticalAlign=top;fillColor=none;spacingLeft=34;spacingRight=4;overflow=hidden;rotatable=0;points=[[0,0.5],[1,0.5]];portConstraint=eastwest;dropTarget=0;fontSize=12;" vertex="1" parent="r7IaGhq_1LEt5sb4c37m-23">
          <mxGeometry y="198" width="160" height="10" as="geometry"/>
        </mxCell>
        <mxCell id="r7IaGhq_1LEt5sb4c37m-33" value="" style="shape=partialRectangle;top=0;left=0;bottom=0;fillColor=none;align=left;verticalAlign=top;spacingLeft=4;spacingRight=4;overflow=hidden;rotatable=0;points=[];portConstraint=eastwest;part=1;fontSize=12;" vertex="1" connectable="0" parent="r7IaGhq_1LEt5sb4c37m-32">
          <mxGeometry width="30" height="10" as="geometry"/>
        </mxCell>
        <mxCell id="r7IaGhq_1LEt5sb4c37m-95" style="edgeStyle=orthogonalEdgeStyle;rounded=0;orthogonalLoop=1;jettySize=auto;html=1;entryX=1;entryY=0.5;entryDx=0;entryDy=0;exitX=1;exitY=0.5;exitDx=0;exitDy=0;startArrow=ERone;startFill=0;endArrow=ERone;endFill=0;" edge="1" parent="1" source="r7IaGhq_1LEt5sb4c37m-96" target="r7IaGhq_1LEt5sb4c37m-318">
          <mxGeometry relative="1" as="geometry">
            <Array as="points">
              <mxPoint x="751" y="211.5"/>
              <mxPoint x="751" y="390.5"/>
              <mxPoint x="541" y="390.5"/>
              <mxPoint x="541" y="341.5"/>
            </Array>
          </mxGeometry>
        </mxCell>
        <mxCell id="r7IaGhq_1LEt5sb4c37m-34" value="regency" style="swimlane;fontStyle=0;childLayout=stackLayout;horizontal=1;startSize=26;fillColor=#e0e0e0;horizontalStack=0;resizeParent=1;resizeParentMax=0;resizeLast=0;collapsible=1;marginBottom=0;swimlaneFillColor=#ffffff;align=center;fontSize=14;" vertex="1" parent="1">
          <mxGeometry x="571" y="110.5" width="160" height="126" as="geometry"/>
        </mxCell>
        <mxCell id="r7IaGhq_1LEt5sb4c37m-35" value="regency_id" style="shape=partialRectangle;top=0;left=0;right=0;bottom=0;align=left;verticalAlign=middle;fillColor=none;spacingLeft=34;spacingRight=4;overflow=hidden;rotatable=0;points=[[0,0.5],[1,0.5]];portConstraint=eastwest;dropTarget=0;fontStyle=5;fontSize=12;" vertex="1" parent="r7IaGhq_1LEt5sb4c37m-34">
          <mxGeometry y="26" width="160" height="30" as="geometry"/>
        </mxCell>
        <mxCell id="r7IaGhq_1LEt5sb4c37m-36" value="PK" style="shape=partialRectangle;top=0;left=0;bottom=0;fillColor=none;align=left;verticalAlign=middle;spacingLeft=4;spacingRight=4;overflow=hidden;rotatable=0;points=[];portConstraint=eastwest;part=1;fontSize=12;" vertex="1" connectable="0" parent="r7IaGhq_1LEt5sb4c37m-35">
          <mxGeometry width="30" height="30" as="geometry"/>
        </mxCell>
        <mxCell id="r7IaGhq_1LEt5sb4c37m-82" value="region_id" style="shape=partialRectangle;top=0;left=0;right=0;bottom=0;align=left;verticalAlign=middle;fillColor=none;spacingLeft=34;spacingRight=4;overflow=hidden;rotatable=0;points=[[0,0.5],[1,0.5]];portConstraint=eastwest;dropTarget=0;fontStyle=5;fontSize=12;" vertex="1" parent="r7IaGhq_1LEt5sb4c37m-34">
          <mxGeometry y="56" width="160" height="30" as="geometry"/>
        </mxCell>
        <mxCell id="r7IaGhq_1LEt5sb4c37m-83" value="PK" style="shape=partialRectangle;top=0;left=0;bottom=0;fillColor=none;align=left;verticalAlign=middle;spacingLeft=4;spacingRight=4;overflow=hidden;rotatable=0;points=[];portConstraint=eastwest;part=1;fontSize=12;" vertex="1" connectable="0" parent="r7IaGhq_1LEt5sb4c37m-82">
          <mxGeometry width="30" height="30" as="geometry"/>
        </mxCell>
        <mxCell id="r7IaGhq_1LEt5sb4c37m-96" value="province_id" style="shape=partialRectangle;top=0;left=0;right=0;bottom=1;align=left;verticalAlign=middle;fillColor=none;spacingLeft=34;spacingRight=4;overflow=hidden;rotatable=0;points=[[0,0.5],[1,0.5]];portConstraint=eastwest;dropTarget=0;fontStyle=5;fontSize=12;" vertex="1" parent="r7IaGhq_1LEt5sb4c37m-34">
          <mxGeometry y="86" width="160" height="30" as="geometry"/>
        </mxCell>
        <mxCell id="r7IaGhq_1LEt5sb4c37m-97" value="PK" style="shape=partialRectangle;top=0;left=0;bottom=0;fillColor=none;align=left;verticalAlign=middle;spacingLeft=4;spacingRight=4;overflow=hidden;rotatable=0;points=[];portConstraint=eastwest;part=1;fontSize=12;" vertex="1" connectable="0" parent="r7IaGhq_1LEt5sb4c37m-96">
          <mxGeometry width="30" height="30" as="geometry"/>
        </mxCell>
        <mxCell id="r7IaGhq_1LEt5sb4c37m-43" value="" style="shape=partialRectangle;top=0;left=0;right=0;bottom=0;align=left;verticalAlign=top;fillColor=none;spacingLeft=34;spacingRight=4;overflow=hidden;rotatable=0;points=[[0,0.5],[1,0.5]];portConstraint=eastwest;dropTarget=0;fontSize=12;" vertex="1" parent="r7IaGhq_1LEt5sb4c37m-34">
          <mxGeometry y="116" width="160" height="10" as="geometry"/>
        </mxCell>
        <mxCell id="r7IaGhq_1LEt5sb4c37m-44" value="" style="shape=partialRectangle;top=0;left=0;bottom=0;fillColor=none;align=left;verticalAlign=top;spacingLeft=4;spacingRight=4;overflow=hidden;rotatable=0;points=[];portConstraint=eastwest;part=1;fontSize=12;" vertex="1" connectable="0" parent="r7IaGhq_1LEt5sb4c37m-43">
          <mxGeometry width="30" height="10" as="geometry"/>
        </mxCell>
        <mxCell id="r7IaGhq_1LEt5sb4c37m-50" value="country" style="swimlane;fontStyle=0;childLayout=stackLayout;horizontal=1;startSize=26;fillColor=#e0e0e0;horizontalStack=0;resizeParent=1;resizeParentMax=0;resizeLast=0;collapsible=1;marginBottom=0;swimlaneFillColor=#ffffff;align=center;fontSize=14;" vertex="1" parent="1">
          <mxGeometry x="141" y="120.5" width="160" height="92" as="geometry"/>
        </mxCell>
        <mxCell id="r7IaGhq_1LEt5sb4c37m-51" value="country_id" style="shape=partialRectangle;top=0;left=0;right=0;bottom=1;align=left;verticalAlign=middle;fillColor=none;spacingLeft=34;spacingRight=4;overflow=hidden;rotatable=0;points=[[0,0.5],[1,0.5]];portConstraint=eastwest;dropTarget=0;fontStyle=5;fontSize=12;" vertex="1" parent="r7IaGhq_1LEt5sb4c37m-50">
          <mxGeometry y="26" width="160" height="30" as="geometry"/>
        </mxCell>
        <mxCell id="r7IaGhq_1LEt5sb4c37m-52" value="PK" style="shape=partialRectangle;top=0;left=0;bottom=0;fillColor=none;align=left;verticalAlign=middle;spacingLeft=4;spacingRight=4;overflow=hidden;rotatable=0;points=[];portConstraint=eastwest;part=1;fontSize=12;" vertex="1" connectable="0" parent="r7IaGhq_1LEt5sb4c37m-51">
          <mxGeometry width="30" height="30" as="geometry"/>
        </mxCell>
        <mxCell id="r7IaGhq_1LEt5sb4c37m-53" value="name" style="shape=partialRectangle;top=0;left=0;right=0;bottom=0;align=left;verticalAlign=top;fillColor=none;spacingLeft=34;spacingRight=4;overflow=hidden;rotatable=0;points=[[0,0.5],[1,0.5]];portConstraint=eastwest;dropTarget=0;fontSize=12;" vertex="1" parent="r7IaGhq_1LEt5sb4c37m-50">
          <mxGeometry y="56" width="160" height="26" as="geometry"/>
        </mxCell>
        <mxCell id="r7IaGhq_1LEt5sb4c37m-54" value="" style="shape=partialRectangle;top=0;left=0;bottom=0;fillColor=none;align=left;verticalAlign=top;spacingLeft=4;spacingRight=4;overflow=hidden;rotatable=0;points=[];portConstraint=eastwest;part=1;fontSize=12;" vertex="1" connectable="0" parent="r7IaGhq_1LEt5sb4c37m-53">
          <mxGeometry width="30" height="26" as="geometry"/>
        </mxCell>
        <mxCell id="r7IaGhq_1LEt5sb4c37m-59" value="" style="shape=partialRectangle;top=0;left=0;right=0;bottom=0;align=left;verticalAlign=top;fillColor=none;spacingLeft=34;spacingRight=4;overflow=hidden;rotatable=0;points=[[0,0.5],[1,0.5]];portConstraint=eastwest;dropTarget=0;fontSize=12;" vertex="1" parent="r7IaGhq_1LEt5sb4c37m-50">
          <mxGeometry y="82" width="160" height="10" as="geometry"/>
        </mxCell>
        <mxCell id="r7IaGhq_1LEt5sb4c37m-60" value="" style="shape=partialRectangle;top=0;left=0;bottom=0;fillColor=none;align=left;verticalAlign=top;spacingLeft=4;spacingRight=4;overflow=hidden;rotatable=0;points=[];portConstraint=eastwest;part=1;fontSize=12;" vertex="1" connectable="0" parent="r7IaGhq_1LEt5sb4c37m-59">
          <mxGeometry width="30" height="10" as="geometry"/>
        </mxCell>
        <mxCell id="r7IaGhq_1LEt5sb4c37m-61" value="region" style="swimlane;fontStyle=0;childLayout=stackLayout;horizontal=1;startSize=26;fillColor=#e0e0e0;horizontalStack=0;resizeParent=1;resizeParentMax=0;resizeLast=0;collapsible=1;marginBottom=0;swimlaneFillColor=#ffffff;align=center;fontSize=14;" vertex="1" parent="1">
          <mxGeometry x="351" y="246.5" width="160" height="144" as="geometry"/>
        </mxCell>
        <mxCell id="r7IaGhq_1LEt5sb4c37m-62" value="region_id" style="shape=partialRectangle;top=0;left=0;right=0;bottom=1;align=left;verticalAlign=middle;fillColor=none;spacingLeft=34;spacingRight=4;overflow=hidden;rotatable=0;points=[[0,0.5],[1,0.5]];portConstraint=eastwest;dropTarget=0;fontStyle=5;fontSize=12;" vertex="1" parent="r7IaGhq_1LEt5sb4c37m-61">
          <mxGeometry y="26" width="160" height="30" as="geometry"/>
        </mxCell>
        <mxCell id="r7IaGhq_1LEt5sb4c37m-63" value="PK" style="shape=partialRectangle;top=0;left=0;bottom=0;fillColor=none;align=left;verticalAlign=middle;spacingLeft=4;spacingRight=4;overflow=hidden;rotatable=0;points=[];portConstraint=eastwest;part=1;fontSize=12;" vertex="1" connectable="0" parent="r7IaGhq_1LEt5sb4c37m-62">
          <mxGeometry width="30" height="30" as="geometry"/>
        </mxCell>
        <mxCell id="r7IaGhq_1LEt5sb4c37m-66" value="type" style="shape=partialRectangle;top=0;left=0;right=0;bottom=0;align=left;verticalAlign=top;fillColor=none;spacingLeft=34;spacingRight=4;overflow=hidden;rotatable=0;points=[[0,0.5],[1,0.5]];portConstraint=eastwest;dropTarget=0;fontSize=12;" vertex="1" parent="r7IaGhq_1LEt5sb4c37m-61">
          <mxGeometry y="56" width="160" height="26" as="geometry"/>
        </mxCell>
        <mxCell id="r7IaGhq_1LEt5sb4c37m-67" value="" style="shape=partialRectangle;top=0;left=0;bottom=0;fillColor=none;align=left;verticalAlign=top;spacingLeft=4;spacingRight=4;overflow=hidden;rotatable=0;points=[];portConstraint=eastwest;part=1;fontSize=12;" vertex="1" connectable="0" parent="r7IaGhq_1LEt5sb4c37m-66">
          <mxGeometry width="30" height="26" as="geometry"/>
        </mxCell>
        <mxCell id="r7IaGhq_1LEt5sb4c37m-318" value="name" style="shape=partialRectangle;top=0;left=0;right=0;bottom=0;align=left;verticalAlign=top;fillColor=none;spacingLeft=34;spacingRight=4;overflow=hidden;rotatable=0;points=[[0,0.5],[1,0.5]];portConstraint=eastwest;dropTarget=0;fontSize=12;" vertex="1" parent="r7IaGhq_1LEt5sb4c37m-61">
          <mxGeometry y="82" width="160" height="26" as="geometry"/>
        </mxCell>
        <mxCell id="r7IaGhq_1LEt5sb4c37m-319" value="" style="shape=partialRectangle;top=0;left=0;bottom=0;fillColor=none;align=left;verticalAlign=top;spacingLeft=4;spacingRight=4;overflow=hidden;rotatable=0;points=[];portConstraint=eastwest;part=1;fontSize=12;" vertex="1" connectable="0" parent="r7IaGhq_1LEt5sb4c37m-318">
          <mxGeometry width="30" height="26" as="geometry"/>
        </mxCell>
        <mxCell id="r7IaGhq_1LEt5sb4c37m-320" value="full_name" style="shape=partialRectangle;top=0;left=0;right=0;bottom=0;align=left;verticalAlign=top;fillColor=none;spacingLeft=34;spacingRight=4;overflow=hidden;rotatable=0;points=[[0,0.5],[1,0.5]];portConstraint=eastwest;dropTarget=0;fontSize=12;" vertex="1" parent="r7IaGhq_1LEt5sb4c37m-61">
          <mxGeometry y="108" width="160" height="26" as="geometry"/>
        </mxCell>
        <mxCell id="r7IaGhq_1LEt5sb4c37m-321" value="" style="shape=partialRectangle;top=0;left=0;bottom=0;fillColor=none;align=left;verticalAlign=top;spacingLeft=4;spacingRight=4;overflow=hidden;rotatable=0;points=[];portConstraint=eastwest;part=1;fontSize=12;" vertex="1" connectable="0" parent="r7IaGhq_1LEt5sb4c37m-320">
          <mxGeometry width="30" height="26" as="geometry"/>
        </mxCell>
        <mxCell id="r7IaGhq_1LEt5sb4c37m-70" value="" style="shape=partialRectangle;top=0;left=0;right=0;bottom=0;align=left;verticalAlign=top;fillColor=none;spacingLeft=34;spacingRight=4;overflow=hidden;rotatable=0;points=[[0,0.5],[1,0.5]];portConstraint=eastwest;dropTarget=0;fontSize=12;" vertex="1" parent="r7IaGhq_1LEt5sb4c37m-61">
          <mxGeometry y="134" width="160" height="10" as="geometry"/>
        </mxCell>
        <mxCell id="r7IaGhq_1LEt5sb4c37m-71" value="" style="shape=partialRectangle;top=0;left=0;bottom=0;fillColor=none;align=left;verticalAlign=top;spacingLeft=4;spacingRight=4;overflow=hidden;rotatable=0;points=[];portConstraint=eastwest;part=1;fontSize=12;" vertex="1" connectable="0" parent="r7IaGhq_1LEt5sb4c37m-70">
          <mxGeometry width="30" height="10" as="geometry"/>
        </mxCell>
        <mxCell id="r7IaGhq_1LEt5sb4c37m-78" style="edgeStyle=orthogonalEdgeStyle;rounded=0;orthogonalLoop=1;jettySize=auto;html=1;entryX=0.003;entryY=0.765;entryDx=0;entryDy=0;entryPerimeter=0;startArrow=ERone;startFill=0;endArrow=ERmany;endFill=0;" edge="1" parent="1" target="r7IaGhq_1LEt5sb4c37m-2">
          <mxGeometry relative="1" as="geometry">
            <mxPoint x="301" y="159.5" as="sourcePoint"/>
            <mxPoint x="351" y="151.5" as="targetPoint"/>
            <Array as="points">
              <mxPoint x="321" y="159.5"/>
              <mxPoint x="321" y="159.5"/>
            </Array>
          </mxGeometry>
        </mxCell>
        <mxCell id="r7IaGhq_1LEt5sb4c37m-88" style="edgeStyle=orthogonalEdgeStyle;rounded=0;orthogonalLoop=1;jettySize=auto;html=1;exitX=1;exitY=0.5;exitDx=0;exitDy=0;entryX=0;entryY=0.5;entryDx=0;entryDy=0;startArrow=ERmany;startFill=0;endArrow=ERone;endFill=0;" edge="1" parent="1" source="r7IaGhq_1LEt5sb4c37m-24" target="r7IaGhq_1LEt5sb4c37m-4">
          <mxGeometry relative="1" as="geometry"/>
        </mxCell>
        <mxCell id="r7IaGhq_1LEt5sb4c37m-89" style="edgeStyle=orthogonalEdgeStyle;rounded=0;orthogonalLoop=1;jettySize=auto;html=1;exitX=1;exitY=0.5;exitDx=0;exitDy=0;startArrow=ERmany;startFill=0;endArrow=ERone;endFill=0;" edge="1" parent="1" source="r7IaGhq_1LEt5sb4c37m-72">
          <mxGeometry relative="1" as="geometry">
            <mxPoint x="351" y="321.5" as="targetPoint"/>
          </mxGeometry>
        </mxCell>
        <mxCell id="r7IaGhq_1LEt5sb4c37m-92" style="edgeStyle=orthogonalEdgeStyle;rounded=0;orthogonalLoop=1;jettySize=auto;html=1;exitX=1;exitY=0.5;exitDx=0;exitDy=0;entryX=0;entryY=0.5;entryDx=0;entryDy=0;startArrow=ERone;startFill=0;endArrow=ERmany;endFill=0;" edge="1" parent="1" source="r7IaGhq_1LEt5sb4c37m-4" target="r7IaGhq_1LEt5sb4c37m-13">
          <mxGeometry relative="1" as="geometry"/>
        </mxCell>
        <mxCell id="r7IaGhq_1LEt5sb4c37m-93" style="edgeStyle=orthogonalEdgeStyle;rounded=0;orthogonalLoop=1;jettySize=auto;html=1;exitX=1;exitY=0.5;exitDx=0;exitDy=0;entryX=0;entryY=0.5;entryDx=0;entryDy=0;startArrow=ERmany;startFill=0;endArrow=ERone;endFill=0;" edge="1" parent="1" source="r7IaGhq_1LEt5sb4c37m-2" target="r7IaGhq_1LEt5sb4c37m-35">
          <mxGeometry relative="1" as="geometry"/>
        </mxCell>
        <mxCell id="r7IaGhq_1LEt5sb4c37m-94" style="edgeStyle=orthogonalEdgeStyle;rounded=0;orthogonalLoop=1;jettySize=auto;html=1;exitX=0;exitY=0.5;exitDx=0;exitDy=0;entryX=1;entryY=0.5;entryDx=0;entryDy=0;startArrow=ERone;startFill=0;endArrow=ERone;endFill=0;" edge="1" parent="1" source="r7IaGhq_1LEt5sb4c37m-80" target="r7IaGhq_1LEt5sb4c37m-66">
          <mxGeometry relative="1" as="geometry"/>
        </mxCell>
        <mxCell id="r7IaGhq_1LEt5sb4c37m-99" value="employee" style="shape=umlFrame;whiteSpace=wrap;html=1;width=90;height=29;" vertex="1" parent="1">
          <mxGeometry x="979" y="832.5" width="300" height="200" as="geometry"/>
        </mxCell>
        <mxCell id="r7IaGhq_1LEt5sb4c37m-100" value="customer" style="shape=umlFrame;whiteSpace=wrap;html=1;width=90;height=30;" vertex="1" parent="1">
          <mxGeometry x="871" y="80.5" width="300" height="200" as="geometry"/>
        </mxCell>
        <mxCell id="r7IaGhq_1LEt5sb4c37m-101" value="business" style="shape=umlFrame;whiteSpace=wrap;html=1;" vertex="1" parent="1">
          <mxGeometry x="871" y="293.5" width="460" height="484" as="geometry"/>
        </mxCell>
        <mxCell id="r7IaGhq_1LEt5sb4c37m-113" value="branch" style="swimlane;fontStyle=0;childLayout=stackLayout;horizontal=1;startSize=26;fillColor=#e0e0e0;horizontalStack=0;resizeParent=1;resizeParentMax=0;resizeLast=0;collapsible=1;marginBottom=0;swimlaneFillColor=#ffffff;align=center;fontSize=14;" vertex="1" parent="1">
          <mxGeometry x="561" y="607.5" width="160" height="96" as="geometry"/>
        </mxCell>
        <mxCell id="r7IaGhq_1LEt5sb4c37m-114" value="branch_id" style="shape=partialRectangle;top=0;left=0;right=0;bottom=0;align=left;verticalAlign=middle;fillColor=none;spacingLeft=34;spacingRight=4;overflow=hidden;rotatable=0;points=[[0,0.5],[1,0.5]];portConstraint=eastwest;dropTarget=0;fontStyle=5;fontSize=12;" vertex="1" parent="r7IaGhq_1LEt5sb4c37m-113">
          <mxGeometry y="26" width="160" height="30" as="geometry"/>
        </mxCell>
        <mxCell id="r7IaGhq_1LEt5sb4c37m-115" value="PK" style="shape=partialRectangle;top=0;left=0;bottom=0;fillColor=none;align=left;verticalAlign=middle;spacingLeft=4;spacingRight=4;overflow=hidden;rotatable=0;points=[];portConstraint=eastwest;part=1;fontSize=12;" vertex="1" connectable="0" parent="r7IaGhq_1LEt5sb4c37m-114">
          <mxGeometry width="30" height="30" as="geometry"/>
        </mxCell>
        <mxCell id="r7IaGhq_1LEt5sb4c37m-292" value="hub_id" style="shape=partialRectangle;top=0;left=0;right=0;bottom=1;align=left;verticalAlign=middle;fillColor=none;spacingLeft=34;spacingRight=4;overflow=hidden;rotatable=0;points=[[0,0.5],[1,0.5]];portConstraint=eastwest;dropTarget=0;fontStyle=5;fontSize=12;" vertex="1" parent="r7IaGhq_1LEt5sb4c37m-113">
          <mxGeometry y="56" width="160" height="30" as="geometry"/>
        </mxCell>
        <mxCell id="r7IaGhq_1LEt5sb4c37m-293" value="FK" style="shape=partialRectangle;top=0;left=0;bottom=0;fillColor=none;align=left;verticalAlign=middle;spacingLeft=4;spacingRight=4;overflow=hidden;rotatable=0;points=[];portConstraint=eastwest;part=1;fontSize=12;" vertex="1" connectable="0" parent="r7IaGhq_1LEt5sb4c37m-292">
          <mxGeometry width="30" height="30" as="geometry"/>
        </mxCell>
        <mxCell id="r7IaGhq_1LEt5sb4c37m-122" value="" style="shape=partialRectangle;top=0;left=0;right=0;bottom=0;align=left;verticalAlign=top;fillColor=none;spacingLeft=34;spacingRight=4;overflow=hidden;rotatable=0;points=[[0,0.5],[1,0.5]];portConstraint=eastwest;dropTarget=0;fontSize=12;" vertex="1" parent="r7IaGhq_1LEt5sb4c37m-113">
          <mxGeometry y="86" width="160" height="10" as="geometry"/>
        </mxCell>
        <mxCell id="r7IaGhq_1LEt5sb4c37m-123" value="" style="shape=partialRectangle;top=0;left=0;bottom=0;fillColor=none;align=left;verticalAlign=top;spacingLeft=4;spacingRight=4;overflow=hidden;rotatable=0;points=[];portConstraint=eastwest;part=1;fontSize=12;" vertex="1" connectable="0" parent="r7IaGhq_1LEt5sb4c37m-122">
          <mxGeometry width="30" height="10" as="geometry"/>
        </mxCell>
        <mxCell id="r7IaGhq_1LEt5sb4c37m-124" value="warehouse" style="swimlane;fontStyle=0;childLayout=stackLayout;horizontal=1;startSize=26;fillColor=#e0e0e0;horizontalStack=0;resizeParent=1;resizeParentMax=0;resizeLast=0;collapsible=1;marginBottom=0;swimlaneFillColor=#ffffff;align=center;fontSize=14;" vertex="1" parent="1">
          <mxGeometry x="121" y="635.5" width="160" height="96" as="geometry"/>
        </mxCell>
        <mxCell id="r7IaGhq_1LEt5sb4c37m-125" value="warehouse_id" style="shape=partialRectangle;top=0;left=0;right=0;bottom=0;align=left;verticalAlign=middle;fillColor=none;spacingLeft=34;spacingRight=4;overflow=hidden;rotatable=0;points=[[0,0.5],[1,0.5]];portConstraint=eastwest;dropTarget=0;fontStyle=5;fontSize=12;" vertex="1" parent="r7IaGhq_1LEt5sb4c37m-124">
          <mxGeometry y="26" width="160" height="30" as="geometry"/>
        </mxCell>
        <mxCell id="r7IaGhq_1LEt5sb4c37m-126" value="PK" style="shape=partialRectangle;top=0;left=0;bottom=0;fillColor=none;align=left;verticalAlign=middle;spacingLeft=4;spacingRight=4;overflow=hidden;rotatable=0;points=[];portConstraint=eastwest;part=1;fontSize=12;" vertex="1" connectable="0" parent="r7IaGhq_1LEt5sb4c37m-125">
          <mxGeometry width="30" height="30" as="geometry"/>
        </mxCell>
        <mxCell id="r7IaGhq_1LEt5sb4c37m-311" value="hub_id" style="shape=partialRectangle;top=0;left=0;right=0;bottom=1;align=left;verticalAlign=middle;fillColor=none;spacingLeft=34;spacingRight=4;overflow=hidden;rotatable=0;points=[[0,0.5],[1,0.5]];portConstraint=eastwest;dropTarget=0;fontStyle=5;fontSize=12;" vertex="1" parent="r7IaGhq_1LEt5sb4c37m-124">
          <mxGeometry y="56" width="160" height="30" as="geometry"/>
        </mxCell>
        <mxCell id="r7IaGhq_1LEt5sb4c37m-312" value="FK" style="shape=partialRectangle;top=0;left=0;bottom=0;fillColor=none;align=left;verticalAlign=middle;spacingLeft=4;spacingRight=4;overflow=hidden;rotatable=0;points=[];portConstraint=eastwest;part=1;fontSize=12;" vertex="1" connectable="0" parent="r7IaGhq_1LEt5sb4c37m-311">
          <mxGeometry width="30" height="30" as="geometry"/>
        </mxCell>
        <mxCell id="r7IaGhq_1LEt5sb4c37m-133" value="" style="shape=partialRectangle;top=0;left=0;right=0;bottom=0;align=left;verticalAlign=top;fillColor=none;spacingLeft=34;spacingRight=4;overflow=hidden;rotatable=0;points=[[0,0.5],[1,0.5]];portConstraint=eastwest;dropTarget=0;fontSize=12;" vertex="1" parent="r7IaGhq_1LEt5sb4c37m-124">
          <mxGeometry y="86" width="160" height="10" as="geometry"/>
        </mxCell>
        <mxCell id="r7IaGhq_1LEt5sb4c37m-134" value="" style="shape=partialRectangle;top=0;left=0;bottom=0;fillColor=none;align=left;verticalAlign=top;spacingLeft=4;spacingRight=4;overflow=hidden;rotatable=0;points=[];portConstraint=eastwest;part=1;fontSize=12;" vertex="1" connectable="0" parent="r7IaGhq_1LEt5sb4c37m-133">
          <mxGeometry width="30" height="10" as="geometry"/>
        </mxCell>
        <mxCell id="r7IaGhq_1LEt5sb4c37m-315" style="edgeStyle=orthogonalEdgeStyle;rounded=0;orthogonalLoop=1;jettySize=auto;html=1;exitX=0.5;exitY=0;exitDx=0;exitDy=0;entryX=0.5;entryY=1;entryDx=0;entryDy=0;endArrow=ERmany;endFill=0;startArrow=ERone;startFill=0;" edge="1" parent="1" source="r7IaGhq_1LEt5sb4c37m-135" target="r7IaGhq_1LEt5sb4c37m-113">
          <mxGeometry relative="1" as="geometry"/>
        </mxCell>
        <mxCell id="r7IaGhq_1LEt5sb4c37m-135" value="branch_scope" style="swimlane;fontStyle=0;childLayout=stackLayout;horizontal=1;startSize=26;fillColor=#e0e0e0;horizontalStack=0;resizeParent=1;resizeParentMax=0;resizeLast=0;collapsible=1;marginBottom=0;swimlaneFillColor=#ffffff;align=center;fontSize=14;" vertex="1" parent="1">
          <mxGeometry x="561" y="734.5" width="160" height="152" as="geometry"/>
        </mxCell>
        <mxCell id="r7IaGhq_1LEt5sb4c37m-136" value="branch_scope_id" style="shape=partialRectangle;top=0;left=0;right=0;bottom=0;align=left;verticalAlign=middle;fillColor=none;spacingLeft=34;spacingRight=4;overflow=hidden;rotatable=0;points=[[0,0.5],[1,0.5]];portConstraint=eastwest;dropTarget=0;fontStyle=5;fontSize=12;" vertex="1" parent="r7IaGhq_1LEt5sb4c37m-135">
          <mxGeometry y="26" width="160" height="30" as="geometry"/>
        </mxCell>
        <mxCell id="r7IaGhq_1LEt5sb4c37m-137" value="PK" style="shape=partialRectangle;top=0;left=0;bottom=0;fillColor=none;align=left;verticalAlign=middle;spacingLeft=4;spacingRight=4;overflow=hidden;rotatable=0;points=[];portConstraint=eastwest;part=1;fontSize=12;" vertex="1" connectable="0" parent="r7IaGhq_1LEt5sb4c37m-136">
          <mxGeometry width="30" height="30" as="geometry"/>
        </mxCell>
        <mxCell id="r7IaGhq_1LEt5sb4c37m-294" value="branch_id" style="shape=partialRectangle;top=0;left=0;right=0;bottom=0;align=left;verticalAlign=middle;fillColor=none;spacingLeft=34;spacingRight=4;overflow=hidden;rotatable=0;points=[[0,0.5],[1,0.5]];portConstraint=eastwest;dropTarget=0;fontStyle=5;fontSize=12;" vertex="1" parent="r7IaGhq_1LEt5sb4c37m-135">
          <mxGeometry y="56" width="160" height="30" as="geometry"/>
        </mxCell>
        <mxCell id="r7IaGhq_1LEt5sb4c37m-295" value="FK" style="shape=partialRectangle;top=0;left=0;bottom=0;fillColor=none;align=left;verticalAlign=middle;spacingLeft=4;spacingRight=4;overflow=hidden;rotatable=0;points=[];portConstraint=eastwest;part=1;fontSize=12;" vertex="1" connectable="0" parent="r7IaGhq_1LEt5sb4c37m-294">
          <mxGeometry width="30" height="30" as="geometry"/>
        </mxCell>
        <mxCell id="r7IaGhq_1LEt5sb4c37m-138" value="hub_id" style="shape=partialRectangle;top=0;left=0;right=0;bottom=0;align=left;verticalAlign=top;fillColor=none;spacingLeft=34;spacingRight=4;overflow=hidden;rotatable=0;points=[[0,0.5],[1,0.5]];portConstraint=eastwest;dropTarget=0;fontSize=12;fontStyle=5" vertex="1" parent="r7IaGhq_1LEt5sb4c37m-135">
          <mxGeometry y="86" width="160" height="26" as="geometry"/>
        </mxCell>
        <mxCell id="r7IaGhq_1LEt5sb4c37m-139" value="FK" style="shape=partialRectangle;top=0;left=0;bottom=0;fillColor=none;align=left;verticalAlign=top;spacingLeft=4;spacingRight=4;overflow=hidden;rotatable=0;points=[];portConstraint=eastwest;part=1;fontSize=12;" vertex="1" connectable="0" parent="r7IaGhq_1LEt5sb4c37m-138">
          <mxGeometry width="30" height="26" as="geometry"/>
        </mxCell>
        <mxCell id="r7IaGhq_1LEt5sb4c37m-296" value="region_id" style="shape=partialRectangle;top=0;left=0;right=0;bottom=1;align=left;verticalAlign=middle;fillColor=none;spacingLeft=34;spacingRight=4;overflow=hidden;rotatable=0;points=[[0,0.5],[1,0.5]];portConstraint=eastwest;dropTarget=0;fontStyle=5;fontSize=12;" vertex="1" parent="r7IaGhq_1LEt5sb4c37m-135">
          <mxGeometry y="112" width="160" height="30" as="geometry"/>
        </mxCell>
        <mxCell id="r7IaGhq_1LEt5sb4c37m-297" value="FK" style="shape=partialRectangle;top=0;left=0;bottom=0;fillColor=none;align=left;verticalAlign=middle;spacingLeft=4;spacingRight=4;overflow=hidden;rotatable=0;points=[];portConstraint=eastwest;part=1;fontSize=12;" vertex="1" connectable="0" parent="r7IaGhq_1LEt5sb4c37m-296">
          <mxGeometry width="30" height="30" as="geometry"/>
        </mxCell>
        <mxCell id="r7IaGhq_1LEt5sb4c37m-144" value="" style="shape=partialRectangle;top=0;left=0;right=0;bottom=0;align=left;verticalAlign=top;fillColor=none;spacingLeft=34;spacingRight=4;overflow=hidden;rotatable=0;points=[[0,0.5],[1,0.5]];portConstraint=eastwest;dropTarget=0;fontSize=12;" vertex="1" parent="r7IaGhq_1LEt5sb4c37m-135">
          <mxGeometry y="142" width="160" height="10" as="geometry"/>
        </mxCell>
        <mxCell id="r7IaGhq_1LEt5sb4c37m-145" value="" style="shape=partialRectangle;top=0;left=0;bottom=0;fillColor=none;align=left;verticalAlign=top;spacingLeft=4;spacingRight=4;overflow=hidden;rotatable=0;points=[];portConstraint=eastwest;part=1;fontSize=12;" vertex="1" connectable="0" parent="r7IaGhq_1LEt5sb4c37m-144">
          <mxGeometry width="30" height="10" as="geometry"/>
        </mxCell>
        <mxCell id="r7IaGhq_1LEt5sb4c37m-146" value="receive" style="swimlane;fontStyle=0;childLayout=stackLayout;horizontal=1;startSize=26;fillColor=#e0e0e0;horizontalStack=0;resizeParent=1;resizeParentMax=0;resizeLast=0;collapsible=1;marginBottom=0;swimlaneFillColor=#ffffff;align=center;fontSize=14;" vertex="1" parent="1">
          <mxGeometry x="426" y="1377.5" width="160" height="178" as="geometry"/>
        </mxCell>
        <mxCell id="r7IaGhq_1LEt5sb4c37m-147" value="receive_id" style="shape=partialRectangle;top=0;left=0;right=0;bottom=0;align=left;verticalAlign=middle;fillColor=none;spacingLeft=34;spacingRight=4;overflow=hidden;rotatable=0;points=[[0,0.5],[1,0.5]];portConstraint=eastwest;dropTarget=0;fontStyle=5;fontSize=12;" vertex="1" parent="r7IaGhq_1LEt5sb4c37m-146">
          <mxGeometry y="26" width="160" height="30" as="geometry"/>
        </mxCell>
        <mxCell id="r7IaGhq_1LEt5sb4c37m-148" value="PK" style="shape=partialRectangle;top=0;left=0;bottom=0;fillColor=none;align=left;verticalAlign=middle;spacingLeft=4;spacingRight=4;overflow=hidden;rotatable=0;points=[];portConstraint=eastwest;part=1;fontSize=12;" vertex="1" connectable="0" parent="r7IaGhq_1LEt5sb4c37m-147">
          <mxGeometry width="30" height="30" as="geometry"/>
        </mxCell>
        <mxCell id="r7IaGhq_1LEt5sb4c37m-396" value="task_id" style="shape=partialRectangle;top=0;left=0;right=0;bottom=0;align=left;verticalAlign=middle;fillColor=none;spacingLeft=34;spacingRight=4;overflow=hidden;rotatable=0;points=[[0,0.5],[1,0.5]];portConstraint=eastwest;dropTarget=0;fontStyle=5;fontSize=12;" vertex="1" parent="r7IaGhq_1LEt5sb4c37m-146">
          <mxGeometry y="56" width="160" height="30" as="geometry"/>
        </mxCell>
        <mxCell id="r7IaGhq_1LEt5sb4c37m-397" value="FK" style="shape=partialRectangle;top=0;left=0;bottom=0;fillColor=none;align=left;verticalAlign=middle;spacingLeft=4;spacingRight=4;overflow=hidden;rotatable=0;points=[];portConstraint=eastwest;part=1;fontSize=12;" vertex="1" connectable="0" parent="r7IaGhq_1LEt5sb4c37m-396">
          <mxGeometry width="30" height="30" as="geometry"/>
        </mxCell>
        <mxCell id="r7IaGhq_1LEt5sb4c37m-398" value="hub_id" style="shape=partialRectangle;top=0;left=0;right=0;bottom=0;align=left;verticalAlign=top;fillColor=none;spacingLeft=34;spacingRight=4;overflow=hidden;rotatable=0;points=[[0,0.5],[1,0.5]];portConstraint=eastwest;dropTarget=0;fontSize=12;fontStyle=5" vertex="1" parent="r7IaGhq_1LEt5sb4c37m-146">
          <mxGeometry y="86" width="160" height="26" as="geometry"/>
        </mxCell>
        <mxCell id="r7IaGhq_1LEt5sb4c37m-399" value="FK" style="shape=partialRectangle;top=0;left=0;bottom=0;fillColor=none;align=left;verticalAlign=top;spacingLeft=4;spacingRight=4;overflow=hidden;rotatable=0;points=[];portConstraint=eastwest;part=1;fontSize=12;" vertex="1" connectable="0" parent="r7IaGhq_1LEt5sb4c37m-398">
          <mxGeometry width="30" height="26" as="geometry"/>
        </mxCell>
        <mxCell id="r7IaGhq_1LEt5sb4c37m-400" value="employee_id" style="shape=partialRectangle;top=0;left=0;right=0;bottom=1;align=left;verticalAlign=middle;fillColor=none;spacingLeft=34;spacingRight=4;overflow=hidden;rotatable=0;points=[[0,0.5],[1,0.5]];portConstraint=eastwest;dropTarget=0;fontStyle=5;fontSize=12;" vertex="1" parent="r7IaGhq_1LEt5sb4c37m-146">
          <mxGeometry y="112" width="160" height="30" as="geometry"/>
        </mxCell>
        <mxCell id="r7IaGhq_1LEt5sb4c37m-401" value="FK" style="shape=partialRectangle;top=0;left=0;bottom=0;fillColor=none;align=left;verticalAlign=middle;spacingLeft=4;spacingRight=4;overflow=hidden;rotatable=0;points=[];portConstraint=eastwest;part=1;fontSize=12;" vertex="1" connectable="0" parent="r7IaGhq_1LEt5sb4c37m-400">
          <mxGeometry width="30" height="30" as="geometry"/>
        </mxCell>
        <mxCell id="r7IaGhq_1LEt5sb4c37m-149" value="timestamp" style="shape=partialRectangle;top=0;left=0;right=0;bottom=0;align=left;verticalAlign=top;fillColor=none;spacingLeft=34;spacingRight=4;overflow=hidden;rotatable=0;points=[[0,0.5],[1,0.5]];portConstraint=eastwest;dropTarget=0;fontSize=12;" vertex="1" parent="r7IaGhq_1LEt5sb4c37m-146">
          <mxGeometry y="142" width="160" height="26" as="geometry"/>
        </mxCell>
        <mxCell id="r7IaGhq_1LEt5sb4c37m-150" value="" style="shape=partialRectangle;top=0;left=0;bottom=0;fillColor=none;align=left;verticalAlign=top;spacingLeft=4;spacingRight=4;overflow=hidden;rotatable=0;points=[];portConstraint=eastwest;part=1;fontSize=12;" vertex="1" connectable="0" parent="r7IaGhq_1LEt5sb4c37m-149">
          <mxGeometry width="30" height="26" as="geometry"/>
        </mxCell>
        <mxCell id="r7IaGhq_1LEt5sb4c37m-155" value="" style="shape=partialRectangle;top=0;left=0;right=0;bottom=0;align=left;verticalAlign=top;fillColor=none;spacingLeft=34;spacingRight=4;overflow=hidden;rotatable=0;points=[[0,0.5],[1,0.5]];portConstraint=eastwest;dropTarget=0;fontSize=12;" vertex="1" parent="r7IaGhq_1LEt5sb4c37m-146">
          <mxGeometry y="168" width="160" height="10" as="geometry"/>
        </mxCell>
        <mxCell id="r7IaGhq_1LEt5sb4c37m-156" value="" style="shape=partialRectangle;top=0;left=0;bottom=0;fillColor=none;align=left;verticalAlign=top;spacingLeft=4;spacingRight=4;overflow=hidden;rotatable=0;points=[];portConstraint=eastwest;part=1;fontSize=12;" vertex="1" connectable="0" parent="r7IaGhq_1LEt5sb4c37m-155">
          <mxGeometry width="30" height="10" as="geometry"/>
        </mxCell>
        <mxCell id="r7IaGhq_1LEt5sb4c37m-157" value="deliver" style="swimlane;fontStyle=0;childLayout=stackLayout;horizontal=1;startSize=26;fillColor=#e0e0e0;horizontalStack=0;resizeParent=1;resizeParentMax=0;resizeLast=0;collapsible=1;marginBottom=0;swimlaneFillColor=#ffffff;align=center;fontSize=14;" vertex="1" parent="1">
          <mxGeometry x="819" y="1130" width="160" height="200" as="geometry"/>
        </mxCell>
        <mxCell id="r7IaGhq_1LEt5sb4c37m-158" value="deliver_id" style="shape=partialRectangle;top=0;left=0;right=0;bottom=0;align=left;verticalAlign=middle;fillColor=none;spacingLeft=34;spacingRight=4;overflow=hidden;rotatable=0;points=[[0,0.5],[1,0.5]];portConstraint=eastwest;dropTarget=0;fontStyle=5;fontSize=12;" vertex="1" parent="r7IaGhq_1LEt5sb4c37m-157">
          <mxGeometry y="26" width="160" height="30" as="geometry"/>
        </mxCell>
        <mxCell id="r7IaGhq_1LEt5sb4c37m-159" value="PK" style="shape=partialRectangle;top=0;left=0;bottom=0;fillColor=none;align=left;verticalAlign=middle;spacingLeft=4;spacingRight=4;overflow=hidden;rotatable=0;points=[];portConstraint=eastwest;part=1;fontSize=12;" vertex="1" connectable="0" parent="r7IaGhq_1LEt5sb4c37m-158">
          <mxGeometry width="30" height="30" as="geometry"/>
        </mxCell>
        <mxCell id="r7IaGhq_1LEt5sb4c37m-402" value="order_id" style="shape=partialRectangle;top=0;left=0;right=0;bottom=0;align=left;verticalAlign=top;fillColor=none;spacingLeft=34;spacingRight=4;overflow=hidden;rotatable=0;points=[[0,0.5],[1,0.5]];portConstraint=eastwest;dropTarget=0;fontSize=12;fontStyle=5" vertex="1" parent="r7IaGhq_1LEt5sb4c37m-157">
          <mxGeometry y="56" width="160" height="26" as="geometry"/>
        </mxCell>
        <mxCell id="r7IaGhq_1LEt5sb4c37m-403" value="FK" style="shape=partialRectangle;top=0;left=0;bottom=0;fillColor=none;align=left;verticalAlign=top;spacingLeft=4;spacingRight=4;overflow=hidden;rotatable=0;points=[];portConstraint=eastwest;part=1;fontSize=12;" vertex="1" connectable="0" parent="r7IaGhq_1LEt5sb4c37m-402">
          <mxGeometry width="30" height="26" as="geometry"/>
        </mxCell>
        <mxCell id="r7IaGhq_1LEt5sb4c37m-404" value="hub_id" style="shape=partialRectangle;top=0;left=0;right=0;bottom=0;align=left;verticalAlign=top;fillColor=none;spacingLeft=34;spacingRight=4;overflow=hidden;rotatable=0;points=[[0,0.5],[1,0.5]];portConstraint=eastwest;dropTarget=0;fontSize=12;fontStyle=5" vertex="1" parent="r7IaGhq_1LEt5sb4c37m-157">
          <mxGeometry y="82" width="160" height="26" as="geometry"/>
        </mxCell>
        <mxCell id="r7IaGhq_1LEt5sb4c37m-405" value="FK" style="shape=partialRectangle;top=0;left=0;bottom=0;fillColor=none;align=left;verticalAlign=top;spacingLeft=4;spacingRight=4;overflow=hidden;rotatable=0;points=[];portConstraint=eastwest;part=1;fontSize=12;" vertex="1" connectable="0" parent="r7IaGhq_1LEt5sb4c37m-404">
          <mxGeometry width="30" height="26" as="geometry"/>
        </mxCell>
        <mxCell id="r7IaGhq_1LEt5sb4c37m-406" value="employee_id" style="shape=partialRectangle;top=0;left=0;right=0;bottom=1;align=left;verticalAlign=middle;fillColor=none;spacingLeft=34;spacingRight=4;overflow=hidden;rotatable=0;points=[[0,0.5],[1,0.5]];portConstraint=eastwest;dropTarget=0;fontStyle=5;fontSize=12;" vertex="1" parent="r7IaGhq_1LEt5sb4c37m-157">
          <mxGeometry y="108" width="160" height="30" as="geometry"/>
        </mxCell>
        <mxCell id="r7IaGhq_1LEt5sb4c37m-407" value="FK" style="shape=partialRectangle;top=0;left=0;bottom=0;fillColor=none;align=left;verticalAlign=middle;spacingLeft=4;spacingRight=4;overflow=hidden;rotatable=0;points=[];portConstraint=eastwest;part=1;fontSize=12;" vertex="1" connectable="0" parent="r7IaGhq_1LEt5sb4c37m-406">
          <mxGeometry width="30" height="30" as="geometry"/>
        </mxCell>
        <mxCell id="r7IaGhq_1LEt5sb4c37m-160" value="eta_day" style="shape=partialRectangle;top=0;left=0;right=0;bottom=0;align=left;verticalAlign=top;fillColor=none;spacingLeft=34;spacingRight=4;overflow=hidden;rotatable=0;points=[[0,0.5],[1,0.5]];portConstraint=eastwest;dropTarget=0;fontSize=12;" vertex="1" parent="r7IaGhq_1LEt5sb4c37m-157">
          <mxGeometry y="138" width="160" height="26" as="geometry"/>
        </mxCell>
        <mxCell id="r7IaGhq_1LEt5sb4c37m-161" value="" style="shape=partialRectangle;top=0;left=0;bottom=0;fillColor=none;align=left;verticalAlign=top;spacingLeft=4;spacingRight=4;overflow=hidden;rotatable=0;points=[];portConstraint=eastwest;part=1;fontSize=12;" vertex="1" connectable="0" parent="r7IaGhq_1LEt5sb4c37m-160">
          <mxGeometry width="30" height="26" as="geometry"/>
        </mxCell>
        <mxCell id="r7IaGhq_1LEt5sb4c37m-162" value="timestamp" style="shape=partialRectangle;top=0;left=0;right=0;bottom=0;align=left;verticalAlign=top;fillColor=none;spacingLeft=34;spacingRight=4;overflow=hidden;rotatable=0;points=[[0,0.5],[1,0.5]];portConstraint=eastwest;dropTarget=0;fontSize=12;" vertex="1" parent="r7IaGhq_1LEt5sb4c37m-157">
          <mxGeometry y="164" width="160" height="26" as="geometry"/>
        </mxCell>
        <mxCell id="r7IaGhq_1LEt5sb4c37m-163" value="" style="shape=partialRectangle;top=0;left=0;bottom=0;fillColor=none;align=left;verticalAlign=top;spacingLeft=4;spacingRight=4;overflow=hidden;rotatable=0;points=[];portConstraint=eastwest;part=1;fontSize=12;" vertex="1" connectable="0" parent="r7IaGhq_1LEt5sb4c37m-162">
          <mxGeometry width="30" height="26" as="geometry"/>
        </mxCell>
        <mxCell id="r7IaGhq_1LEt5sb4c37m-166" value="" style="shape=partialRectangle;top=0;left=0;right=0;bottom=0;align=left;verticalAlign=top;fillColor=none;spacingLeft=34;spacingRight=4;overflow=hidden;rotatable=0;points=[[0,0.5],[1,0.5]];portConstraint=eastwest;dropTarget=0;fontSize=12;" vertex="1" parent="r7IaGhq_1LEt5sb4c37m-157">
          <mxGeometry y="190" width="160" height="10" as="geometry"/>
        </mxCell>
        <mxCell id="r7IaGhq_1LEt5sb4c37m-167" value="" style="shape=partialRectangle;top=0;left=0;bottom=0;fillColor=none;align=left;verticalAlign=top;spacingLeft=4;spacingRight=4;overflow=hidden;rotatable=0;points=[];portConstraint=eastwest;part=1;fontSize=12;" vertex="1" connectable="0" parent="r7IaGhq_1LEt5sb4c37m-166">
          <mxGeometry width="30" height="10" as="geometry"/>
        </mxCell>
        <mxCell id="r7IaGhq_1LEt5sb4c37m-169" value="task" style="swimlane;fontStyle=0;childLayout=stackLayout;horizontal=1;startSize=26;fillColor=#e0e0e0;horizontalStack=0;resizeParent=1;resizeParentMax=0;resizeLast=0;collapsible=1;marginBottom=0;swimlaneFillColor=#ffffff;align=center;fontSize=14;" vertex="1" parent="1">
          <mxGeometry x="821" y="1355.5" width="160" height="200" as="geometry"/>
        </mxCell>
        <mxCell id="r7IaGhq_1LEt5sb4c37m-170" value="task_id" style="shape=partialRectangle;top=0;left=0;right=0;bottom=0;align=left;verticalAlign=middle;fillColor=none;spacingLeft=34;spacingRight=4;overflow=hidden;rotatable=0;points=[[0,0.5],[1,0.5]];portConstraint=eastwest;dropTarget=0;fontStyle=5;fontSize=12;" vertex="1" parent="r7IaGhq_1LEt5sb4c37m-169">
          <mxGeometry y="26" width="160" height="30" as="geometry"/>
        </mxCell>
        <mxCell id="r7IaGhq_1LEt5sb4c37m-171" value="PK" style="shape=partialRectangle;top=0;left=0;bottom=0;fillColor=none;align=left;verticalAlign=middle;spacingLeft=4;spacingRight=4;overflow=hidden;rotatable=0;points=[];portConstraint=eastwest;part=1;fontSize=12;" vertex="1" connectable="0" parent="r7IaGhq_1LEt5sb4c37m-170">
          <mxGeometry width="30" height="30" as="geometry"/>
        </mxCell>
        <mxCell id="r7IaGhq_1LEt5sb4c37m-172" value="order_id" style="shape=partialRectangle;top=0;left=0;right=0;bottom=0;align=left;verticalAlign=top;fillColor=none;spacingLeft=34;spacingRight=4;overflow=hidden;rotatable=0;points=[[0,0.5],[1,0.5]];portConstraint=eastwest;dropTarget=0;fontSize=12;fontStyle=5" vertex="1" parent="r7IaGhq_1LEt5sb4c37m-169">
          <mxGeometry y="56" width="160" height="26" as="geometry"/>
        </mxCell>
        <mxCell id="r7IaGhq_1LEt5sb4c37m-173" value="FK" style="shape=partialRectangle;top=0;left=0;bottom=0;fillColor=none;align=left;verticalAlign=top;spacingLeft=4;spacingRight=4;overflow=hidden;rotatable=0;points=[];portConstraint=eastwest;part=1;fontSize=12;" vertex="1" connectable="0" parent="r7IaGhq_1LEt5sb4c37m-172">
          <mxGeometry width="30" height="26" as="geometry"/>
        </mxCell>
        <mxCell id="r7IaGhq_1LEt5sb4c37m-372" value="hub_id" style="shape=partialRectangle;top=0;left=0;right=0;bottom=0;align=left;verticalAlign=top;fillColor=none;spacingLeft=34;spacingRight=4;overflow=hidden;rotatable=0;points=[[0,0.5],[1,0.5]];portConstraint=eastwest;dropTarget=0;fontSize=12;fontStyle=5" vertex="1" parent="r7IaGhq_1LEt5sb4c37m-169">
          <mxGeometry y="82" width="160" height="26" as="geometry"/>
        </mxCell>
        <mxCell id="r7IaGhq_1LEt5sb4c37m-373" value="FK" style="shape=partialRectangle;top=0;left=0;bottom=0;fillColor=none;align=left;verticalAlign=top;spacingLeft=4;spacingRight=4;overflow=hidden;rotatable=0;points=[];portConstraint=eastwest;part=1;fontSize=12;" vertex="1" connectable="0" parent="r7IaGhq_1LEt5sb4c37m-372">
          <mxGeometry width="30" height="26" as="geometry"/>
        </mxCell>
        <mxCell id="r7IaGhq_1LEt5sb4c37m-382" value="operator_id" style="shape=partialRectangle;top=0;left=0;right=0;bottom=0;align=left;verticalAlign=top;fillColor=none;spacingLeft=34;spacingRight=4;overflow=hidden;rotatable=0;points=[[0,0.5],[1,0.5]];portConstraint=eastwest;dropTarget=0;fontSize=12;fontStyle=5" vertex="1" parent="r7IaGhq_1LEt5sb4c37m-169">
          <mxGeometry y="108" width="160" height="26" as="geometry"/>
        </mxCell>
        <mxCell id="r7IaGhq_1LEt5sb4c37m-383" value="FK" style="shape=partialRectangle;top=0;left=0;bottom=0;fillColor=none;align=left;verticalAlign=top;spacingLeft=4;spacingRight=4;overflow=hidden;rotatable=0;points=[];portConstraint=eastwest;part=1;fontSize=12;" vertex="1" connectable="0" parent="r7IaGhq_1LEt5sb4c37m-382">
          <mxGeometry width="30" height="26" as="geometry"/>
        </mxCell>
        <mxCell id="r7IaGhq_1LEt5sb4c37m-374" value="employee_id" style="shape=partialRectangle;top=0;left=0;right=0;bottom=1;align=left;verticalAlign=middle;fillColor=none;spacingLeft=34;spacingRight=4;overflow=hidden;rotatable=0;points=[[0,0.5],[1,0.5]];portConstraint=eastwest;dropTarget=0;fontStyle=5;fontSize=12;" vertex="1" parent="r7IaGhq_1LEt5sb4c37m-169">
          <mxGeometry y="134" width="160" height="30" as="geometry"/>
        </mxCell>
        <mxCell id="r7IaGhq_1LEt5sb4c37m-375" value="FK" style="shape=partialRectangle;top=0;left=0;bottom=0;fillColor=none;align=left;verticalAlign=middle;spacingLeft=4;spacingRight=4;overflow=hidden;rotatable=0;points=[];portConstraint=eastwest;part=1;fontSize=12;" vertex="1" connectable="0" parent="r7IaGhq_1LEt5sb4c37m-374">
          <mxGeometry width="30" height="30" as="geometry"/>
        </mxCell>
        <mxCell id="r7IaGhq_1LEt5sb4c37m-174" value="timestamp" style="shape=partialRectangle;top=0;left=0;right=0;bottom=0;align=left;verticalAlign=top;fillColor=none;spacingLeft=34;spacingRight=4;overflow=hidden;rotatable=0;points=[[0,0.5],[1,0.5]];portConstraint=eastwest;dropTarget=0;fontSize=12;" vertex="1" parent="r7IaGhq_1LEt5sb4c37m-169">
          <mxGeometry y="164" width="160" height="26" as="geometry"/>
        </mxCell>
        <mxCell id="r7IaGhq_1LEt5sb4c37m-175" value="" style="shape=partialRectangle;top=0;left=0;bottom=0;fillColor=none;align=left;verticalAlign=top;spacingLeft=4;spacingRight=4;overflow=hidden;rotatable=0;points=[];portConstraint=eastwest;part=1;fontSize=12;" vertex="1" connectable="0" parent="r7IaGhq_1LEt5sb4c37m-174">
          <mxGeometry width="30" height="26" as="geometry"/>
        </mxCell>
        <mxCell id="r7IaGhq_1LEt5sb4c37m-178" value="" style="shape=partialRectangle;top=0;left=0;right=0;bottom=0;align=left;verticalAlign=top;fillColor=none;spacingLeft=34;spacingRight=4;overflow=hidden;rotatable=0;points=[[0,0.5],[1,0.5]];portConstraint=eastwest;dropTarget=0;fontSize=12;" vertex="1" parent="r7IaGhq_1LEt5sb4c37m-169">
          <mxGeometry y="190" width="160" height="10" as="geometry"/>
        </mxCell>
        <mxCell id="r7IaGhq_1LEt5sb4c37m-179" value="" style="shape=partialRectangle;top=0;left=0;bottom=0;fillColor=none;align=left;verticalAlign=top;spacingLeft=4;spacingRight=4;overflow=hidden;rotatable=0;points=[];portConstraint=eastwest;part=1;fontSize=12;" vertex="1" connectable="0" parent="r7IaGhq_1LEt5sb4c37m-178">
          <mxGeometry width="30" height="10" as="geometry"/>
        </mxCell>
        <mxCell id="r7IaGhq_1LEt5sb4c37m-360" style="edgeStyle=orthogonalEdgeStyle;rounded=0;orthogonalLoop=1;jettySize=auto;html=1;exitX=0.48;exitY=0.909;exitDx=0;exitDy=0;entryX=0.5;entryY=0;entryDx=0;entryDy=0;startArrow=ERone;startFill=0;endArrow=ERmany;endFill=0;exitPerimeter=0;" edge="1" parent="1" source="r7IaGhq_1LEt5sb4c37m-189" target="r7IaGhq_1LEt5sb4c37m-224">
          <mxGeometry relative="1" as="geometry">
            <Array as="points">
              <mxPoint x="977" y="812"/>
              <mxPoint x="1169" y="812"/>
            </Array>
          </mxGeometry>
        </mxCell>
        <mxCell id="r7IaGhq_1LEt5sb4c37m-361" style="edgeStyle=orthogonalEdgeStyle;rounded=0;orthogonalLoop=1;jettySize=auto;html=1;exitX=0;exitY=0.5;exitDx=0;exitDy=0;entryX=0;entryY=0.5;entryDx=0;entryDy=0;startArrow=ERone;startFill=0;endArrow=ERmany;endFill=0;" edge="1" parent="1" source="r7IaGhq_1LEt5sb4c37m-181" target="r7IaGhq_1LEt5sb4c37m-214">
          <mxGeometry relative="1" as="geometry">
            <Array as="points">
              <mxPoint x="841" y="382.5"/>
              <mxPoint x="841" y="165.5"/>
            </Array>
          </mxGeometry>
        </mxCell>
        <mxCell id="r7IaGhq_1LEt5sb4c37m-180" value="packet" style="swimlane;fontStyle=0;childLayout=stackLayout;horizontal=1;startSize=26;fillColor=#e0e0e0;horizontalStack=0;resizeParent=1;resizeParentMax=0;resizeLast=0;collapsible=1;marginBottom=0;swimlaneFillColor=#ffffff;align=center;fontSize=14;" vertex="1" parent="1">
          <mxGeometry x="901" y="341.5" width="160" height="398" as="geometry"/>
        </mxCell>
        <mxCell id="r7IaGhq_1LEt5sb4c37m-181" value="packet_id" style="shape=partialRectangle;top=0;left=0;right=0;bottom=0;align=left;verticalAlign=middle;fillColor=none;spacingLeft=34;spacingRight=4;overflow=hidden;rotatable=0;points=[[0,0.5],[1,0.5]];portConstraint=eastwest;dropTarget=0;fontStyle=5;fontSize=12;" vertex="1" parent="r7IaGhq_1LEt5sb4c37m-180">
          <mxGeometry y="26" width="160" height="30" as="geometry"/>
        </mxCell>
        <mxCell id="r7IaGhq_1LEt5sb4c37m-182" value="PK" style="shape=partialRectangle;top=0;left=0;bottom=0;fillColor=none;align=left;verticalAlign=middle;spacingLeft=4;spacingRight=4;overflow=hidden;rotatable=0;points=[];portConstraint=eastwest;part=1;fontSize=12;" vertex="1" connectable="0" parent="r7IaGhq_1LEt5sb4c37m-181">
          <mxGeometry width="30" height="30" as="geometry"/>
        </mxCell>
        <mxCell id="r7IaGhq_1LEt5sb4c37m-323" value="customer_id" style="shape=partialRectangle;top=0;left=0;right=0;bottom=0;align=left;verticalAlign=middle;fillColor=none;spacingLeft=34;spacingRight=4;overflow=hidden;rotatable=0;points=[[0,0.5],[1,0.5]];portConstraint=eastwest;dropTarget=0;fontStyle=5;fontSize=12;" vertex="1" parent="r7IaGhq_1LEt5sb4c37m-180">
          <mxGeometry y="56" width="160" height="30" as="geometry"/>
        </mxCell>
        <mxCell id="r7IaGhq_1LEt5sb4c37m-324" value="FK" style="shape=partialRectangle;top=0;left=0;bottom=0;fillColor=none;align=left;verticalAlign=middle;spacingLeft=4;spacingRight=4;overflow=hidden;rotatable=0;points=[];portConstraint=eastwest;part=1;fontSize=12;" vertex="1" connectable="0" parent="r7IaGhq_1LEt5sb4c37m-323">
          <mxGeometry width="30" height="30" as="geometry"/>
        </mxCell>
        <mxCell id="r7IaGhq_1LEt5sb4c37m-325" value="employee_id" style="shape=partialRectangle;top=0;left=0;right=0;bottom=0;align=left;verticalAlign=middle;fillColor=none;spacingLeft=34;spacingRight=4;overflow=hidden;rotatable=0;points=[[0,0.5],[1,0.5]];portConstraint=eastwest;dropTarget=0;fontStyle=5;fontSize=12;" vertex="1" parent="r7IaGhq_1LEt5sb4c37m-180">
          <mxGeometry y="86" width="160" height="30" as="geometry"/>
        </mxCell>
        <mxCell id="r7IaGhq_1LEt5sb4c37m-326" value="FK" style="shape=partialRectangle;top=0;left=0;bottom=0;fillColor=none;align=left;verticalAlign=middle;spacingLeft=4;spacingRight=4;overflow=hidden;rotatable=0;points=[];portConstraint=eastwest;part=1;fontSize=12;" vertex="1" connectable="0" parent="r7IaGhq_1LEt5sb4c37m-325">
          <mxGeometry width="30" height="30" as="geometry"/>
        </mxCell>
        <mxCell id="r7IaGhq_1LEt5sb4c37m-327" value="address_id" style="shape=partialRectangle;top=0;left=0;right=0;bottom=0;align=left;verticalAlign=middle;fillColor=none;spacingLeft=34;spacingRight=4;overflow=hidden;rotatable=0;points=[[0,0.5],[1,0.5]];portConstraint=eastwest;dropTarget=0;fontStyle=5;fontSize=12;" vertex="1" parent="r7IaGhq_1LEt5sb4c37m-180">
          <mxGeometry y="116" width="160" height="30" as="geometry"/>
        </mxCell>
        <mxCell id="r7IaGhq_1LEt5sb4c37m-328" value="FK" style="shape=partialRectangle;top=0;left=0;bottom=0;fillColor=none;align=left;verticalAlign=middle;spacingLeft=4;spacingRight=4;overflow=hidden;rotatable=0;points=[];portConstraint=eastwest;part=1;fontSize=12;" vertex="1" connectable="0" parent="r7IaGhq_1LEt5sb4c37m-327">
          <mxGeometry width="30" height="30" as="geometry"/>
        </mxCell>
        <mxCell id="r7IaGhq_1LEt5sb4c37m-329" value="priority_id" style="shape=partialRectangle;top=0;left=0;right=0;bottom=0;align=left;verticalAlign=middle;fillColor=none;spacingLeft=34;spacingRight=4;overflow=hidden;rotatable=0;points=[[0,0.5],[1,0.5]];portConstraint=eastwest;dropTarget=0;fontStyle=5;fontSize=12;" vertex="1" parent="r7IaGhq_1LEt5sb4c37m-180">
          <mxGeometry y="146" width="160" height="30" as="geometry"/>
        </mxCell>
        <mxCell id="r7IaGhq_1LEt5sb4c37m-330" value="FK" style="shape=partialRectangle;top=0;left=0;bottom=0;fillColor=none;align=left;verticalAlign=middle;spacingLeft=4;spacingRight=4;overflow=hidden;rotatable=0;points=[];portConstraint=eastwest;part=1;fontSize=12;" vertex="1" connectable="0" parent="r7IaGhq_1LEt5sb4c37m-329">
          <mxGeometry width="30" height="30" as="geometry"/>
        </mxCell>
        <mxCell id="r7IaGhq_1LEt5sb4c37m-337" value="hub_id" style="shape=partialRectangle;top=0;left=0;right=0;bottom=1;align=left;verticalAlign=middle;fillColor=none;spacingLeft=34;spacingRight=4;overflow=hidden;rotatable=0;points=[[0,0.5],[1,0.5]];portConstraint=eastwest;dropTarget=0;fontStyle=5;fontSize=12;" vertex="1" parent="r7IaGhq_1LEt5sb4c37m-180">
          <mxGeometry y="176" width="160" height="30" as="geometry"/>
        </mxCell>
        <mxCell id="r7IaGhq_1LEt5sb4c37m-338" value="FK" style="shape=partialRectangle;top=0;left=0;bottom=0;fillColor=none;align=left;verticalAlign=middle;spacingLeft=4;spacingRight=4;overflow=hidden;rotatable=0;points=[];portConstraint=eastwest;part=1;fontSize=12;" vertex="1" connectable="0" parent="r7IaGhq_1LEt5sb4c37m-337">
          <mxGeometry width="30" height="30" as="geometry"/>
        </mxCell>
        <mxCell id="r7IaGhq_1LEt5sb4c37m-183" value="width" style="shape=partialRectangle;top=0;left=0;right=0;bottom=0;align=left;verticalAlign=top;fillColor=none;spacingLeft=34;spacingRight=4;overflow=hidden;rotatable=0;points=[[0,0.5],[1,0.5]];portConstraint=eastwest;dropTarget=0;fontSize=12;" vertex="1" parent="r7IaGhq_1LEt5sb4c37m-180">
          <mxGeometry y="206" width="160" height="26" as="geometry"/>
        </mxCell>
        <mxCell id="r7IaGhq_1LEt5sb4c37m-184" value="" style="shape=partialRectangle;top=0;left=0;bottom=0;fillColor=none;align=left;verticalAlign=top;spacingLeft=4;spacingRight=4;overflow=hidden;rotatable=0;points=[];portConstraint=eastwest;part=1;fontSize=12;" vertex="1" connectable="0" parent="r7IaGhq_1LEt5sb4c37m-183">
          <mxGeometry width="30" height="26" as="geometry"/>
        </mxCell>
        <mxCell id="r7IaGhq_1LEt5sb4c37m-185" value="height" style="shape=partialRectangle;top=0;left=0;right=0;bottom=0;align=left;verticalAlign=top;fillColor=none;spacingLeft=34;spacingRight=4;overflow=hidden;rotatable=0;points=[[0,0.5],[1,0.5]];portConstraint=eastwest;dropTarget=0;fontSize=12;" vertex="1" parent="r7IaGhq_1LEt5sb4c37m-180">
          <mxGeometry y="232" width="160" height="26" as="geometry"/>
        </mxCell>
        <mxCell id="r7IaGhq_1LEt5sb4c37m-186" value="" style="shape=partialRectangle;top=0;left=0;bottom=0;fillColor=none;align=left;verticalAlign=top;spacingLeft=4;spacingRight=4;overflow=hidden;rotatable=0;points=[];portConstraint=eastwest;part=1;fontSize=12;" vertex="1" connectable="0" parent="r7IaGhq_1LEt5sb4c37m-185">
          <mxGeometry width="30" height="26" as="geometry"/>
        </mxCell>
        <mxCell id="r7IaGhq_1LEt5sb4c37m-187" value="length" style="shape=partialRectangle;top=0;left=0;right=0;bottom=0;align=left;verticalAlign=top;fillColor=none;spacingLeft=34;spacingRight=4;overflow=hidden;rotatable=0;points=[[0,0.5],[1,0.5]];portConstraint=eastwest;dropTarget=0;fontSize=12;" vertex="1" parent="r7IaGhq_1LEt5sb4c37m-180">
          <mxGeometry y="258" width="160" height="26" as="geometry"/>
        </mxCell>
        <mxCell id="r7IaGhq_1LEt5sb4c37m-188" value="" style="shape=partialRectangle;top=0;left=0;bottom=0;fillColor=none;align=left;verticalAlign=top;spacingLeft=4;spacingRight=4;overflow=hidden;rotatable=0;points=[];portConstraint=eastwest;part=1;fontSize=12;" vertex="1" connectable="0" parent="r7IaGhq_1LEt5sb4c37m-187">
          <mxGeometry width="30" height="26" as="geometry"/>
        </mxCell>
        <mxCell id="r7IaGhq_1LEt5sb4c37m-331" value="weight" style="shape=partialRectangle;top=0;left=0;right=0;bottom=0;align=left;verticalAlign=top;fillColor=none;spacingLeft=34;spacingRight=4;overflow=hidden;rotatable=0;points=[[0,0.5],[1,0.5]];portConstraint=eastwest;dropTarget=0;fontSize=12;" vertex="1" parent="r7IaGhq_1LEt5sb4c37m-180">
          <mxGeometry y="284" width="160" height="26" as="geometry"/>
        </mxCell>
        <mxCell id="r7IaGhq_1LEt5sb4c37m-332" value="" style="shape=partialRectangle;top=0;left=0;bottom=0;fillColor=none;align=left;verticalAlign=top;spacingLeft=4;spacingRight=4;overflow=hidden;rotatable=0;points=[];portConstraint=eastwest;part=1;fontSize=12;" vertex="1" connectable="0" parent="r7IaGhq_1LEt5sb4c37m-331">
          <mxGeometry width="30" height="26" as="geometry"/>
        </mxCell>
        <mxCell id="r7IaGhq_1LEt5sb4c37m-333" value="type" style="shape=partialRectangle;top=0;left=0;right=0;bottom=0;align=left;verticalAlign=top;fillColor=none;spacingLeft=34;spacingRight=4;overflow=hidden;rotatable=0;points=[[0,0.5],[1,0.5]];portConstraint=eastwest;dropTarget=0;fontSize=12;" vertex="1" parent="r7IaGhq_1LEt5sb4c37m-180">
          <mxGeometry y="310" width="160" height="26" as="geometry"/>
        </mxCell>
        <mxCell id="r7IaGhq_1LEt5sb4c37m-334" value="" style="shape=partialRectangle;top=0;left=0;bottom=0;fillColor=none;align=left;verticalAlign=top;spacingLeft=4;spacingRight=4;overflow=hidden;rotatable=0;points=[];portConstraint=eastwest;part=1;fontSize=12;" vertex="1" connectable="0" parent="r7IaGhq_1LEt5sb4c37m-333">
          <mxGeometry width="30" height="26" as="geometry"/>
        </mxCell>
        <mxCell id="r7IaGhq_1LEt5sb4c37m-343" value="description" style="shape=partialRectangle;top=0;left=0;right=0;bottom=0;align=left;verticalAlign=top;fillColor=none;spacingLeft=34;spacingRight=4;overflow=hidden;rotatable=0;points=[[0,0.5],[1,0.5]];portConstraint=eastwest;dropTarget=0;fontSize=12;" vertex="1" parent="r7IaGhq_1LEt5sb4c37m-180">
          <mxGeometry y="336" width="160" height="26" as="geometry"/>
        </mxCell>
        <mxCell id="r7IaGhq_1LEt5sb4c37m-344" value="" style="shape=partialRectangle;top=0;left=0;bottom=0;fillColor=none;align=left;verticalAlign=top;spacingLeft=4;spacingRight=4;overflow=hidden;rotatable=0;points=[];portConstraint=eastwest;part=1;fontSize=12;" vertex="1" connectable="0" parent="r7IaGhq_1LEt5sb4c37m-343">
          <mxGeometry width="30" height="26" as="geometry"/>
        </mxCell>
        <mxCell id="r7IaGhq_1LEt5sb4c37m-335" value="timestamp" style="shape=partialRectangle;top=0;left=0;right=0;bottom=0;align=left;verticalAlign=top;fillColor=none;spacingLeft=34;spacingRight=4;overflow=hidden;rotatable=0;points=[[0,0.5],[1,0.5]];portConstraint=eastwest;dropTarget=0;fontSize=12;" vertex="1" parent="r7IaGhq_1LEt5sb4c37m-180">
          <mxGeometry y="362" width="160" height="26" as="geometry"/>
        </mxCell>
        <mxCell id="r7IaGhq_1LEt5sb4c37m-336" value="" style="shape=partialRectangle;top=0;left=0;bottom=0;fillColor=none;align=left;verticalAlign=top;spacingLeft=4;spacingRight=4;overflow=hidden;rotatable=0;points=[];portConstraint=eastwest;part=1;fontSize=12;" vertex="1" connectable="0" parent="r7IaGhq_1LEt5sb4c37m-335">
          <mxGeometry width="30" height="26" as="geometry"/>
        </mxCell>
        <mxCell id="r7IaGhq_1LEt5sb4c37m-189" value="" style="shape=partialRectangle;top=0;left=0;right=0;bottom=0;align=left;verticalAlign=top;fillColor=none;spacingLeft=34;spacingRight=4;overflow=hidden;rotatable=0;points=[[0,0.5],[1,0.5]];portConstraint=eastwest;dropTarget=0;fontSize=12;" vertex="1" parent="r7IaGhq_1LEt5sb4c37m-180">
          <mxGeometry y="388" width="160" height="10" as="geometry"/>
        </mxCell>
        <mxCell id="r7IaGhq_1LEt5sb4c37m-190" value="" style="shape=partialRectangle;top=0;left=0;bottom=0;fillColor=none;align=left;verticalAlign=top;spacingLeft=4;spacingRight=4;overflow=hidden;rotatable=0;points=[];portConstraint=eastwest;part=1;fontSize=12;" vertex="1" connectable="0" parent="r7IaGhq_1LEt5sb4c37m-189">
          <mxGeometry width="30" height="10" as="geometry"/>
        </mxCell>
        <mxCell id="r7IaGhq_1LEt5sb4c37m-191" value="order" style="swimlane;fontStyle=0;childLayout=stackLayout;horizontal=1;startSize=26;fillColor=#e0e0e0;horizontalStack=0;resizeParent=1;resizeParentMax=0;resizeLast=0;collapsible=1;marginBottom=0;swimlaneFillColor=#ffffff;align=center;fontSize=14;" vertex="1" parent="1">
          <mxGeometry x="1121" y="484.5" width="160" height="264" as="geometry"/>
        </mxCell>
        <mxCell id="r7IaGhq_1LEt5sb4c37m-192" value="order_id" style="shape=partialRectangle;top=0;left=0;right=0;bottom=0;align=left;verticalAlign=middle;fillColor=none;spacingLeft=34;spacingRight=4;overflow=hidden;rotatable=0;points=[[0,0.5],[1,0.5]];portConstraint=eastwest;dropTarget=0;fontStyle=5;fontSize=12;" vertex="1" parent="r7IaGhq_1LEt5sb4c37m-191">
          <mxGeometry y="26" width="160" height="30" as="geometry"/>
        </mxCell>
        <mxCell id="r7IaGhq_1LEt5sb4c37m-193" value="PK" style="shape=partialRectangle;top=0;left=0;bottom=0;fillColor=none;align=left;verticalAlign=middle;spacingLeft=4;spacingRight=4;overflow=hidden;rotatable=0;points=[];portConstraint=eastwest;part=1;fontSize=12;" vertex="1" connectable="0" parent="r7IaGhq_1LEt5sb4c37m-192">
          <mxGeometry width="30" height="30" as="geometry"/>
        </mxCell>
        <mxCell id="r7IaGhq_1LEt5sb4c37m-339" value="packet_id" style="shape=partialRectangle;top=0;left=0;right=0;bottom=0;align=left;verticalAlign=middle;fillColor=none;spacingLeft=34;spacingRight=4;overflow=hidden;rotatable=0;points=[[0,0.5],[1,0.5]];portConstraint=eastwest;dropTarget=0;fontStyle=5;fontSize=12;" vertex="1" parent="r7IaGhq_1LEt5sb4c37m-191">
          <mxGeometry y="56" width="160" height="30" as="geometry"/>
        </mxCell>
        <mxCell id="r7IaGhq_1LEt5sb4c37m-340" value="FK" style="shape=partialRectangle;top=0;left=0;bottom=0;fillColor=none;align=left;verticalAlign=middle;spacingLeft=4;spacingRight=4;overflow=hidden;rotatable=0;points=[];portConstraint=eastwest;part=1;fontSize=12;" vertex="1" connectable="0" parent="r7IaGhq_1LEt5sb4c37m-339">
          <mxGeometry width="30" height="30" as="geometry"/>
        </mxCell>
        <mxCell id="r7IaGhq_1LEt5sb4c37m-351" value="employee_id" style="shape=partialRectangle;top=0;left=0;right=0;bottom=0;align=left;verticalAlign=middle;fillColor=none;spacingLeft=34;spacingRight=4;overflow=hidden;rotatable=0;points=[[0,0.5],[1,0.5]];portConstraint=eastwest;dropTarget=0;fontStyle=5;fontSize=12;" vertex="1" parent="r7IaGhq_1LEt5sb4c37m-191">
          <mxGeometry y="86" width="160" height="30" as="geometry"/>
        </mxCell>
        <mxCell id="r7IaGhq_1LEt5sb4c37m-352" value="FK" style="shape=partialRectangle;top=0;left=0;bottom=0;fillColor=none;align=left;verticalAlign=middle;spacingLeft=4;spacingRight=4;overflow=hidden;rotatable=0;points=[];portConstraint=eastwest;part=1;fontSize=12;" vertex="1" connectable="0" parent="r7IaGhq_1LEt5sb4c37m-351">
          <mxGeometry width="30" height="30" as="geometry"/>
        </mxCell>
        <mxCell id="r7IaGhq_1LEt5sb4c37m-341" value="address_id" style="shape=partialRectangle;top=0;left=0;right=0;bottom=0;align=left;verticalAlign=middle;fillColor=none;spacingLeft=34;spacingRight=4;overflow=hidden;rotatable=0;points=[[0,0.5],[1,0.5]];portConstraint=eastwest;dropTarget=0;fontStyle=5;fontSize=12;" vertex="1" parent="r7IaGhq_1LEt5sb4c37m-191">
          <mxGeometry y="116" width="160" height="30" as="geometry"/>
        </mxCell>
        <mxCell id="r7IaGhq_1LEt5sb4c37m-342" value="FK" style="shape=partialRectangle;top=0;left=0;bottom=0;fillColor=none;align=left;verticalAlign=middle;spacingLeft=4;spacingRight=4;overflow=hidden;rotatable=0;points=[];portConstraint=eastwest;part=1;fontSize=12;" vertex="1" connectable="0" parent="r7IaGhq_1LEt5sb4c37m-341">
          <mxGeometry width="30" height="30" as="geometry"/>
        </mxCell>
        <mxCell id="r7IaGhq_1LEt5sb4c37m-345" value="hub_id" style="shape=partialRectangle;top=0;left=0;right=0;bottom=1;align=left;verticalAlign=middle;fillColor=none;spacingLeft=34;spacingRight=4;overflow=hidden;rotatable=0;points=[[0,0.5],[1,0.5]];portConstraint=eastwest;dropTarget=0;fontStyle=5;fontSize=12;" vertex="1" parent="r7IaGhq_1LEt5sb4c37m-191">
          <mxGeometry y="146" width="160" height="30" as="geometry"/>
        </mxCell>
        <mxCell id="r7IaGhq_1LEt5sb4c37m-346" value="FK" style="shape=partialRectangle;top=0;left=0;bottom=0;fillColor=none;align=left;verticalAlign=middle;spacingLeft=4;spacingRight=4;overflow=hidden;rotatable=0;points=[];portConstraint=eastwest;part=1;fontSize=12;" vertex="1" connectable="0" parent="r7IaGhq_1LEt5sb4c37m-345">
          <mxGeometry width="30" height="30" as="geometry"/>
        </mxCell>
        <mxCell id="r7IaGhq_1LEt5sb4c37m-347" value="name" style="shape=partialRectangle;top=0;left=0;right=0;bottom=0;align=left;verticalAlign=top;fillColor=none;spacingLeft=34;spacingRight=4;overflow=hidden;rotatable=0;points=[[0,0.5],[1,0.5]];portConstraint=eastwest;dropTarget=0;fontSize=12;" vertex="1" parent="r7IaGhq_1LEt5sb4c37m-191">
          <mxGeometry y="176" width="160" height="26" as="geometry"/>
        </mxCell>
        <mxCell id="r7IaGhq_1LEt5sb4c37m-348" value="" style="shape=partialRectangle;top=0;left=0;bottom=0;fillColor=none;align=left;verticalAlign=top;spacingLeft=4;spacingRight=4;overflow=hidden;rotatable=0;points=[];portConstraint=eastwest;part=1;fontSize=12;" vertex="1" connectable="0" parent="r7IaGhq_1LEt5sb4c37m-347">
          <mxGeometry width="30" height="26" as="geometry"/>
        </mxCell>
        <mxCell id="r7IaGhq_1LEt5sb4c37m-349" value="phone" style="shape=partialRectangle;top=0;left=0;right=0;bottom=0;align=left;verticalAlign=top;fillColor=none;spacingLeft=34;spacingRight=4;overflow=hidden;rotatable=0;points=[[0,0.5],[1,0.5]];portConstraint=eastwest;dropTarget=0;fontSize=12;" vertex="1" parent="r7IaGhq_1LEt5sb4c37m-191">
          <mxGeometry y="202" width="160" height="26" as="geometry"/>
        </mxCell>
        <mxCell id="r7IaGhq_1LEt5sb4c37m-350" value="" style="shape=partialRectangle;top=0;left=0;bottom=0;fillColor=none;align=left;verticalAlign=top;spacingLeft=4;spacingRight=4;overflow=hidden;rotatable=0;points=[];portConstraint=eastwest;part=1;fontSize=12;" vertex="1" connectable="0" parent="r7IaGhq_1LEt5sb4c37m-349">
          <mxGeometry width="30" height="26" as="geometry"/>
        </mxCell>
        <mxCell id="r7IaGhq_1LEt5sb4c37m-194" value="timestamp" style="shape=partialRectangle;top=0;left=0;right=0;bottom=0;align=left;verticalAlign=top;fillColor=none;spacingLeft=34;spacingRight=4;overflow=hidden;rotatable=0;points=[[0,0.5],[1,0.5]];portConstraint=eastwest;dropTarget=0;fontSize=12;" vertex="1" parent="r7IaGhq_1LEt5sb4c37m-191">
          <mxGeometry y="228" width="160" height="26" as="geometry"/>
        </mxCell>
        <mxCell id="r7IaGhq_1LEt5sb4c37m-195" value="" style="shape=partialRectangle;top=0;left=0;bottom=0;fillColor=none;align=left;verticalAlign=top;spacingLeft=4;spacingRight=4;overflow=hidden;rotatable=0;points=[];portConstraint=eastwest;part=1;fontSize=12;" vertex="1" connectable="0" parent="r7IaGhq_1LEt5sb4c37m-194">
          <mxGeometry width="30" height="26" as="geometry"/>
        </mxCell>
        <mxCell id="r7IaGhq_1LEt5sb4c37m-200" value="" style="shape=partialRectangle;top=0;left=0;right=0;bottom=0;align=left;verticalAlign=top;fillColor=none;spacingLeft=34;spacingRight=4;overflow=hidden;rotatable=0;points=[[0,0.5],[1,0.5]];portConstraint=eastwest;dropTarget=0;fontSize=12;" vertex="1" parent="r7IaGhq_1LEt5sb4c37m-191">
          <mxGeometry y="254" width="160" height="10" as="geometry"/>
        </mxCell>
        <mxCell id="r7IaGhq_1LEt5sb4c37m-201" value="" style="shape=partialRectangle;top=0;left=0;bottom=0;fillColor=none;align=left;verticalAlign=top;spacingLeft=4;spacingRight=4;overflow=hidden;rotatable=0;points=[];portConstraint=eastwest;part=1;fontSize=12;" vertex="1" connectable="0" parent="r7IaGhq_1LEt5sb4c37m-200">
          <mxGeometry width="30" height="10" as="geometry"/>
        </mxCell>
        <mxCell id="r7IaGhq_1LEt5sb4c37m-202" value="transport" style="swimlane;fontStyle=0;childLayout=stackLayout;horizontal=1;startSize=26;fillColor=#e0e0e0;horizontalStack=0;resizeParent=1;resizeParentMax=0;resizeLast=0;collapsible=1;marginBottom=0;swimlaneFillColor=#ffffff;align=center;fontSize=14;" vertex="1" parent="1">
          <mxGeometry x="321" y="860.5" width="160" height="144" as="geometry"/>
        </mxCell>
        <mxCell id="r7IaGhq_1LEt5sb4c37m-203" value="transport_id" style="shape=partialRectangle;top=0;left=0;right=0;bottom=1;align=left;verticalAlign=middle;fillColor=none;spacingLeft=34;spacingRight=4;overflow=hidden;rotatable=0;points=[[0,0.5],[1,0.5]];portConstraint=eastwest;dropTarget=0;fontStyle=5;fontSize=12;" vertex="1" parent="r7IaGhq_1LEt5sb4c37m-202">
          <mxGeometry y="26" width="160" height="30" as="geometry"/>
        </mxCell>
        <mxCell id="r7IaGhq_1LEt5sb4c37m-204" value="PK" style="shape=partialRectangle;top=0;left=0;bottom=0;fillColor=none;align=left;verticalAlign=middle;spacingLeft=4;spacingRight=4;overflow=hidden;rotatable=0;points=[];portConstraint=eastwest;part=1;fontSize=12;" vertex="1" connectable="0" parent="r7IaGhq_1LEt5sb4c37m-203">
          <mxGeometry width="30" height="30" as="geometry"/>
        </mxCell>
        <mxCell id="r7IaGhq_1LEt5sb4c37m-205" value="name" style="shape=partialRectangle;top=0;left=0;right=0;bottom=0;align=left;verticalAlign=top;fillColor=none;spacingLeft=34;spacingRight=4;overflow=hidden;rotatable=0;points=[[0,0.5],[1,0.5]];portConstraint=eastwest;dropTarget=0;fontSize=12;" vertex="1" parent="r7IaGhq_1LEt5sb4c37m-202">
          <mxGeometry y="56" width="160" height="26" as="geometry"/>
        </mxCell>
        <mxCell id="r7IaGhq_1LEt5sb4c37m-206" value="" style="shape=partialRectangle;top=0;left=0;bottom=0;fillColor=none;align=left;verticalAlign=top;spacingLeft=4;spacingRight=4;overflow=hidden;rotatable=0;points=[];portConstraint=eastwest;part=1;fontSize=12;" vertex="1" connectable="0" parent="r7IaGhq_1LEt5sb4c37m-205">
          <mxGeometry width="30" height="26" as="geometry"/>
        </mxCell>
        <mxCell id="r7IaGhq_1LEt5sb4c37m-207" value="cost" style="shape=partialRectangle;top=0;left=0;right=0;bottom=0;align=left;verticalAlign=top;fillColor=none;spacingLeft=34;spacingRight=4;overflow=hidden;rotatable=0;points=[[0,0.5],[1,0.5]];portConstraint=eastwest;dropTarget=0;fontSize=12;" vertex="1" parent="r7IaGhq_1LEt5sb4c37m-202">
          <mxGeometry y="82" width="160" height="26" as="geometry"/>
        </mxCell>
        <mxCell id="r7IaGhq_1LEt5sb4c37m-208" value="" style="shape=partialRectangle;top=0;left=0;bottom=0;fillColor=none;align=left;verticalAlign=top;spacingLeft=4;spacingRight=4;overflow=hidden;rotatable=0;points=[];portConstraint=eastwest;part=1;fontSize=12;" vertex="1" connectable="0" parent="r7IaGhq_1LEt5sb4c37m-207">
          <mxGeometry width="30" height="26" as="geometry"/>
        </mxCell>
        <mxCell id="r7IaGhq_1LEt5sb4c37m-209" value="type" style="shape=partialRectangle;top=0;left=0;right=0;bottom=0;align=left;verticalAlign=top;fillColor=none;spacingLeft=34;spacingRight=4;overflow=hidden;rotatable=0;points=[[0,0.5],[1,0.5]];portConstraint=eastwest;dropTarget=0;fontSize=12;" vertex="1" parent="r7IaGhq_1LEt5sb4c37m-202">
          <mxGeometry y="108" width="160" height="26" as="geometry"/>
        </mxCell>
        <mxCell id="r7IaGhq_1LEt5sb4c37m-210" value="" style="shape=partialRectangle;top=0;left=0;bottom=0;fillColor=none;align=left;verticalAlign=top;spacingLeft=4;spacingRight=4;overflow=hidden;rotatable=0;points=[];portConstraint=eastwest;part=1;fontSize=12;" vertex="1" connectable="0" parent="r7IaGhq_1LEt5sb4c37m-209">
          <mxGeometry width="30" height="26" as="geometry"/>
        </mxCell>
        <mxCell id="r7IaGhq_1LEt5sb4c37m-211" value="" style="shape=partialRectangle;top=0;left=0;right=0;bottom=0;align=left;verticalAlign=top;fillColor=none;spacingLeft=34;spacingRight=4;overflow=hidden;rotatable=0;points=[[0,0.5],[1,0.5]];portConstraint=eastwest;dropTarget=0;fontSize=12;" vertex="1" parent="r7IaGhq_1LEt5sb4c37m-202">
          <mxGeometry y="134" width="160" height="10" as="geometry"/>
        </mxCell>
        <mxCell id="r7IaGhq_1LEt5sb4c37m-212" value="" style="shape=partialRectangle;top=0;left=0;bottom=0;fillColor=none;align=left;verticalAlign=top;spacingLeft=4;spacingRight=4;overflow=hidden;rotatable=0;points=[];portConstraint=eastwest;part=1;fontSize=12;" vertex="1" connectable="0" parent="r7IaGhq_1LEt5sb4c37m-211">
          <mxGeometry width="30" height="10" as="geometry"/>
        </mxCell>
        <mxCell id="r7IaGhq_1LEt5sb4c37m-213" value="customer" style="swimlane;fontStyle=0;childLayout=stackLayout;horizontal=1;startSize=26;fillColor=#e0e0e0;horizontalStack=0;resizeParent=1;resizeParentMax=0;resizeLast=0;collapsible=1;marginBottom=0;swimlaneFillColor=#ffffff;align=center;fontSize=14;" vertex="1" parent="1">
          <mxGeometry x="981" y="124.5" width="160" height="144" as="geometry"/>
        </mxCell>
        <mxCell id="r7IaGhq_1LEt5sb4c37m-214" value="customer_id" style="shape=partialRectangle;top=0;left=0;right=0;bottom=1;align=left;verticalAlign=middle;fillColor=none;spacingLeft=34;spacingRight=4;overflow=hidden;rotatable=0;points=[[0,0.5],[1,0.5]];portConstraint=eastwest;dropTarget=0;fontStyle=5;fontSize=12;" vertex="1" parent="r7IaGhq_1LEt5sb4c37m-213">
          <mxGeometry y="26" width="160" height="30" as="geometry"/>
        </mxCell>
        <mxCell id="r7IaGhq_1LEt5sb4c37m-215" value="PK" style="shape=partialRectangle;top=0;left=0;bottom=0;fillColor=none;align=left;verticalAlign=middle;spacingLeft=4;spacingRight=4;overflow=hidden;rotatable=0;points=[];portConstraint=eastwest;part=1;fontSize=12;" vertex="1" connectable="0" parent="r7IaGhq_1LEt5sb4c37m-214">
          <mxGeometry width="30" height="30" as="geometry"/>
        </mxCell>
        <mxCell id="r7IaGhq_1LEt5sb4c37m-216" value="first_name" style="shape=partialRectangle;top=0;left=0;right=0;bottom=0;align=left;verticalAlign=top;fillColor=none;spacingLeft=34;spacingRight=4;overflow=hidden;rotatable=0;points=[[0,0.5],[1,0.5]];portConstraint=eastwest;dropTarget=0;fontSize=12;" vertex="1" parent="r7IaGhq_1LEt5sb4c37m-213">
          <mxGeometry y="56" width="160" height="26" as="geometry"/>
        </mxCell>
        <mxCell id="r7IaGhq_1LEt5sb4c37m-217" value="" style="shape=partialRectangle;top=0;left=0;bottom=0;fillColor=none;align=left;verticalAlign=top;spacingLeft=4;spacingRight=4;overflow=hidden;rotatable=0;points=[];portConstraint=eastwest;part=1;fontSize=12;" vertex="1" connectable="0" parent="r7IaGhq_1LEt5sb4c37m-216">
          <mxGeometry width="30" height="26" as="geometry"/>
        </mxCell>
        <mxCell id="r7IaGhq_1LEt5sb4c37m-218" value="last_name" style="shape=partialRectangle;top=0;left=0;right=0;bottom=0;align=left;verticalAlign=top;fillColor=none;spacingLeft=34;spacingRight=4;overflow=hidden;rotatable=0;points=[[0,0.5],[1,0.5]];portConstraint=eastwest;dropTarget=0;fontSize=12;" vertex="1" parent="r7IaGhq_1LEt5sb4c37m-213">
          <mxGeometry y="82" width="160" height="26" as="geometry"/>
        </mxCell>
        <mxCell id="r7IaGhq_1LEt5sb4c37m-219" value="" style="shape=partialRectangle;top=0;left=0;bottom=0;fillColor=none;align=left;verticalAlign=top;spacingLeft=4;spacingRight=4;overflow=hidden;rotatable=0;points=[];portConstraint=eastwest;part=1;fontSize=12;" vertex="1" connectable="0" parent="r7IaGhq_1LEt5sb4c37m-218">
          <mxGeometry width="30" height="26" as="geometry"/>
        </mxCell>
        <mxCell id="r7IaGhq_1LEt5sb4c37m-220" value="phone" style="shape=partialRectangle;top=0;left=0;right=0;bottom=0;align=left;verticalAlign=top;fillColor=none;spacingLeft=34;spacingRight=4;overflow=hidden;rotatable=0;points=[[0,0.5],[1,0.5]];portConstraint=eastwest;dropTarget=0;fontSize=12;" vertex="1" parent="r7IaGhq_1LEt5sb4c37m-213">
          <mxGeometry y="108" width="160" height="26" as="geometry"/>
        </mxCell>
        <mxCell id="r7IaGhq_1LEt5sb4c37m-221" value="" style="shape=partialRectangle;top=0;left=0;bottom=0;fillColor=none;align=left;verticalAlign=top;spacingLeft=4;spacingRight=4;overflow=hidden;rotatable=0;points=[];portConstraint=eastwest;part=1;fontSize=12;" vertex="1" connectable="0" parent="r7IaGhq_1LEt5sb4c37m-220">
          <mxGeometry width="30" height="26" as="geometry"/>
        </mxCell>
        <mxCell id="r7IaGhq_1LEt5sb4c37m-222" value="" style="shape=partialRectangle;top=0;left=0;right=0;bottom=0;align=left;verticalAlign=top;fillColor=none;spacingLeft=34;spacingRight=4;overflow=hidden;rotatable=0;points=[[0,0.5],[1,0.5]];portConstraint=eastwest;dropTarget=0;fontSize=12;" vertex="1" parent="r7IaGhq_1LEt5sb4c37m-213">
          <mxGeometry y="134" width="160" height="10" as="geometry"/>
        </mxCell>
        <mxCell id="r7IaGhq_1LEt5sb4c37m-223" value="" style="shape=partialRectangle;top=0;left=0;bottom=0;fillColor=none;align=left;verticalAlign=top;spacingLeft=4;spacingRight=4;overflow=hidden;rotatable=0;points=[];portConstraint=eastwest;part=1;fontSize=12;" vertex="1" connectable="0" parent="r7IaGhq_1LEt5sb4c37m-222">
          <mxGeometry width="30" height="10" as="geometry"/>
        </mxCell>
        <mxCell id="r7IaGhq_1LEt5sb4c37m-224" value="employee" style="swimlane;fontStyle=0;childLayout=stackLayout;horizontal=1;startSize=26;fillColor=#e0e0e0;horizontalStack=0;resizeParent=1;resizeParentMax=0;resizeLast=0;collapsible=1;marginBottom=0;swimlaneFillColor=#ffffff;align=center;fontSize=14;" vertex="1" parent="1">
          <mxGeometry x="1089" y="874.5" width="160" height="118" as="geometry"/>
        </mxCell>
        <mxCell id="r7IaGhq_1LEt5sb4c37m-225" value="employee_id" style="shape=partialRectangle;top=0;left=0;right=0;bottom=1;align=left;verticalAlign=middle;fillColor=none;spacingLeft=34;spacingRight=4;overflow=hidden;rotatable=0;points=[[0,0.5],[1,0.5]];portConstraint=eastwest;dropTarget=0;fontStyle=5;fontSize=12;" vertex="1" parent="r7IaGhq_1LEt5sb4c37m-224">
          <mxGeometry y="26" width="160" height="30" as="geometry"/>
        </mxCell>
        <mxCell id="r7IaGhq_1LEt5sb4c37m-226" value="PK" style="shape=partialRectangle;top=0;left=0;bottom=0;fillColor=none;align=left;verticalAlign=middle;spacingLeft=4;spacingRight=4;overflow=hidden;rotatable=0;points=[];portConstraint=eastwest;part=1;fontSize=12;" vertex="1" connectable="0" parent="r7IaGhq_1LEt5sb4c37m-225">
          <mxGeometry width="30" height="30" as="geometry"/>
        </mxCell>
        <mxCell id="r7IaGhq_1LEt5sb4c37m-227" value="first_name" style="shape=partialRectangle;top=0;left=0;right=0;bottom=0;align=left;verticalAlign=top;fillColor=none;spacingLeft=34;spacingRight=4;overflow=hidden;rotatable=0;points=[[0,0.5],[1,0.5]];portConstraint=eastwest;dropTarget=0;fontSize=12;" vertex="1" parent="r7IaGhq_1LEt5sb4c37m-224">
          <mxGeometry y="56" width="160" height="26" as="geometry"/>
        </mxCell>
        <mxCell id="r7IaGhq_1LEt5sb4c37m-228" value="" style="shape=partialRectangle;top=0;left=0;bottom=0;fillColor=none;align=left;verticalAlign=top;spacingLeft=4;spacingRight=4;overflow=hidden;rotatable=0;points=[];portConstraint=eastwest;part=1;fontSize=12;" vertex="1" connectable="0" parent="r7IaGhq_1LEt5sb4c37m-227">
          <mxGeometry width="30" height="26" as="geometry"/>
        </mxCell>
        <mxCell id="r7IaGhq_1LEt5sb4c37m-229" value="last_name" style="shape=partialRectangle;top=0;left=0;right=0;bottom=0;align=left;verticalAlign=top;fillColor=none;spacingLeft=34;spacingRight=4;overflow=hidden;rotatable=0;points=[[0,0.5],[1,0.5]];portConstraint=eastwest;dropTarget=0;fontSize=12;" vertex="1" parent="r7IaGhq_1LEt5sb4c37m-224">
          <mxGeometry y="82" width="160" height="26" as="geometry"/>
        </mxCell>
        <mxCell id="r7IaGhq_1LEt5sb4c37m-230" value="" style="shape=partialRectangle;top=0;left=0;bottom=0;fillColor=none;align=left;verticalAlign=top;spacingLeft=4;spacingRight=4;overflow=hidden;rotatable=0;points=[];portConstraint=eastwest;part=1;fontSize=12;" vertex="1" connectable="0" parent="r7IaGhq_1LEt5sb4c37m-229">
          <mxGeometry width="30" height="26" as="geometry"/>
        </mxCell>
        <mxCell id="r7IaGhq_1LEt5sb4c37m-233" value="" style="shape=partialRectangle;top=0;left=0;right=0;bottom=0;align=left;verticalAlign=top;fillColor=none;spacingLeft=34;spacingRight=4;overflow=hidden;rotatable=0;points=[[0,0.5],[1,0.5]];portConstraint=eastwest;dropTarget=0;fontSize=12;" vertex="1" parent="r7IaGhq_1LEt5sb4c37m-224">
          <mxGeometry y="108" width="160" height="10" as="geometry"/>
        </mxCell>
        <mxCell id="r7IaGhq_1LEt5sb4c37m-234" value="" style="shape=partialRectangle;top=0;left=0;bottom=0;fillColor=none;align=left;verticalAlign=top;spacingLeft=4;spacingRight=4;overflow=hidden;rotatable=0;points=[];portConstraint=eastwest;part=1;fontSize=12;" vertex="1" connectable="0" parent="r7IaGhq_1LEt5sb4c37m-233">
          <mxGeometry width="30" height="10" as="geometry"/>
        </mxCell>
        <mxCell id="r7IaGhq_1LEt5sb4c37m-235" value="operator" style="swimlane;fontStyle=0;childLayout=stackLayout;horizontal=1;startSize=26;fillColor=#e0e0e0;horizontalStack=0;resizeParent=1;resizeParentMax=0;resizeLast=0;collapsible=1;marginBottom=0;swimlaneFillColor=#ffffff;align=center;fontSize=14;" vertex="1" parent="1">
          <mxGeometry x="661" y="1440" width="160" height="252" as="geometry"/>
        </mxCell>
        <mxCell id="r7IaGhq_1LEt5sb4c37m-236" value="operator_id" style="shape=partialRectangle;top=0;left=0;right=0;bottom=0;align=left;verticalAlign=middle;fillColor=none;spacingLeft=34;spacingRight=4;overflow=hidden;rotatable=0;points=[[0,0.5],[1,0.5]];portConstraint=eastwest;dropTarget=0;fontStyle=5;fontSize=12;" vertex="1" parent="r7IaGhq_1LEt5sb4c37m-235">
          <mxGeometry y="26" width="160" height="30" as="geometry"/>
        </mxCell>
        <mxCell id="r7IaGhq_1LEt5sb4c37m-237" value="PK" style="shape=partialRectangle;top=0;left=0;bottom=0;fillColor=none;align=left;verticalAlign=middle;spacingLeft=4;spacingRight=4;overflow=hidden;rotatable=0;points=[];portConstraint=eastwest;part=1;fontSize=12;" vertex="1" connectable="0" parent="r7IaGhq_1LEt5sb4c37m-236">
          <mxGeometry width="30" height="30" as="geometry"/>
        </mxCell>
        <mxCell id="r7IaGhq_1LEt5sb4c37m-384" value="line_id" style="shape=partialRectangle;top=0;left=0;right=0;bottom=0;align=left;verticalAlign=top;fillColor=none;spacingLeft=34;spacingRight=4;overflow=hidden;rotatable=0;points=[[0,0.5],[1,0.5]];portConstraint=eastwest;dropTarget=0;fontSize=12;fontStyle=5" vertex="1" parent="r7IaGhq_1LEt5sb4c37m-235">
          <mxGeometry y="56" width="160" height="26" as="geometry"/>
        </mxCell>
        <mxCell id="r7IaGhq_1LEt5sb4c37m-385" value="FK" style="shape=partialRectangle;top=0;left=0;bottom=0;fillColor=none;align=left;verticalAlign=top;spacingLeft=4;spacingRight=4;overflow=hidden;rotatable=0;points=[];portConstraint=eastwest;part=1;fontSize=12;" vertex="1" connectable="0" parent="r7IaGhq_1LEt5sb4c37m-384">
          <mxGeometry width="30" height="26" as="geometry"/>
        </mxCell>
        <mxCell id="r7IaGhq_1LEt5sb4c37m-386" value="hub_id" style="shape=partialRectangle;top=0;left=0;right=0;bottom=0;align=left;verticalAlign=top;fillColor=none;spacingLeft=34;spacingRight=4;overflow=hidden;rotatable=0;points=[[0,0.5],[1,0.5]];portConstraint=eastwest;dropTarget=0;fontSize=12;fontStyle=5" vertex="1" parent="r7IaGhq_1LEt5sb4c37m-235">
          <mxGeometry y="82" width="160" height="26" as="geometry"/>
        </mxCell>
        <mxCell id="r7IaGhq_1LEt5sb4c37m-387" value="FK" style="shape=partialRectangle;top=0;left=0;bottom=0;fillColor=none;align=left;verticalAlign=top;spacingLeft=4;spacingRight=4;overflow=hidden;rotatable=0;points=[];portConstraint=eastwest;part=1;fontSize=12;" vertex="1" connectable="0" parent="r7IaGhq_1LEt5sb4c37m-386">
          <mxGeometry width="30" height="26" as="geometry"/>
        </mxCell>
        <mxCell id="r7IaGhq_1LEt5sb4c37m-388" value="transport_id" style="shape=partialRectangle;top=0;left=0;right=0;bottom=0;align=left;verticalAlign=top;fillColor=none;spacingLeft=34;spacingRight=4;overflow=hidden;rotatable=0;points=[[0,0.5],[1,0.5]];portConstraint=eastwest;dropTarget=0;fontSize=12;fontStyle=5" vertex="1" parent="r7IaGhq_1LEt5sb4c37m-235">
          <mxGeometry y="108" width="160" height="26" as="geometry"/>
        </mxCell>
        <mxCell id="r7IaGhq_1LEt5sb4c37m-389" value="FK" style="shape=partialRectangle;top=0;left=0;bottom=0;fillColor=none;align=left;verticalAlign=top;spacingLeft=4;spacingRight=4;overflow=hidden;rotatable=0;points=[];portConstraint=eastwest;part=1;fontSize=12;" vertex="1" connectable="0" parent="r7IaGhq_1LEt5sb4c37m-388">
          <mxGeometry width="30" height="26" as="geometry"/>
        </mxCell>
        <mxCell id="r7IaGhq_1LEt5sb4c37m-390" value="employee_id" style="shape=partialRectangle;top=0;left=0;right=0;bottom=1;align=left;verticalAlign=middle;fillColor=none;spacingLeft=34;spacingRight=4;overflow=hidden;rotatable=0;points=[[0,0.5],[1,0.5]];portConstraint=eastwest;dropTarget=0;fontStyle=5;fontSize=12;" vertex="1" parent="r7IaGhq_1LEt5sb4c37m-235">
          <mxGeometry y="134" width="160" height="30" as="geometry"/>
        </mxCell>
        <mxCell id="r7IaGhq_1LEt5sb4c37m-391" value="FK" style="shape=partialRectangle;top=0;left=0;bottom=0;fillColor=none;align=left;verticalAlign=middle;spacingLeft=4;spacingRight=4;overflow=hidden;rotatable=0;points=[];portConstraint=eastwest;part=1;fontSize=12;" vertex="1" connectable="0" parent="r7IaGhq_1LEt5sb4c37m-390">
          <mxGeometry width="30" height="30" as="geometry"/>
        </mxCell>
        <mxCell id="r7IaGhq_1LEt5sb4c37m-238" value="assignment" style="shape=partialRectangle;top=0;left=0;right=0;bottom=0;align=left;verticalAlign=top;fillColor=none;spacingLeft=34;spacingRight=4;overflow=hidden;rotatable=0;points=[[0,0.5],[1,0.5]];portConstraint=eastwest;dropTarget=0;fontSize=12;" vertex="1" parent="r7IaGhq_1LEt5sb4c37m-235">
          <mxGeometry y="164" width="160" height="26" as="geometry"/>
        </mxCell>
        <mxCell id="r7IaGhq_1LEt5sb4c37m-239" value="" style="shape=partialRectangle;top=0;left=0;bottom=0;fillColor=none;align=left;verticalAlign=top;spacingLeft=4;spacingRight=4;overflow=hidden;rotatable=0;points=[];portConstraint=eastwest;part=1;fontSize=12;" vertex="1" connectable="0" parent="r7IaGhq_1LEt5sb4c37m-238">
          <mxGeometry width="30" height="26" as="geometry"/>
        </mxCell>
        <mxCell id="r7IaGhq_1LEt5sb4c37m-394" value="substitute" style="shape=partialRectangle;top=0;left=0;right=0;bottom=0;align=left;verticalAlign=top;fillColor=none;spacingLeft=34;spacingRight=4;overflow=hidden;rotatable=0;points=[[0,0.5],[1,0.5]];portConstraint=eastwest;dropTarget=0;fontSize=12;" vertex="1" parent="r7IaGhq_1LEt5sb4c37m-235">
          <mxGeometry y="190" width="160" height="26" as="geometry"/>
        </mxCell>
        <mxCell id="r7IaGhq_1LEt5sb4c37m-395" value="" style="shape=partialRectangle;top=0;left=0;bottom=0;fillColor=none;align=left;verticalAlign=top;spacingLeft=4;spacingRight=4;overflow=hidden;rotatable=0;points=[];portConstraint=eastwest;part=1;fontSize=12;" vertex="1" connectable="0" parent="r7IaGhq_1LEt5sb4c37m-394">
          <mxGeometry width="30" height="26" as="geometry"/>
        </mxCell>
        <mxCell id="r7IaGhq_1LEt5sb4c37m-392" value="timestamp" style="shape=partialRectangle;top=0;left=0;right=0;bottom=0;align=left;verticalAlign=top;fillColor=none;spacingLeft=34;spacingRight=4;overflow=hidden;rotatable=0;points=[[0,0.5],[1,0.5]];portConstraint=eastwest;dropTarget=0;fontSize=12;" vertex="1" parent="r7IaGhq_1LEt5sb4c37m-235">
          <mxGeometry y="216" width="160" height="26" as="geometry"/>
        </mxCell>
        <mxCell id="r7IaGhq_1LEt5sb4c37m-393" value="" style="shape=partialRectangle;top=0;left=0;bottom=0;fillColor=none;align=left;verticalAlign=top;spacingLeft=4;spacingRight=4;overflow=hidden;rotatable=0;points=[];portConstraint=eastwest;part=1;fontSize=12;" vertex="1" connectable="0" parent="r7IaGhq_1LEt5sb4c37m-392">
          <mxGeometry width="30" height="26" as="geometry"/>
        </mxCell>
        <mxCell id="r7IaGhq_1LEt5sb4c37m-244" value="" style="shape=partialRectangle;top=0;left=0;right=0;bottom=0;align=left;verticalAlign=top;fillColor=none;spacingLeft=34;spacingRight=4;overflow=hidden;rotatable=0;points=[[0,0.5],[1,0.5]];portConstraint=eastwest;dropTarget=0;fontSize=12;" vertex="1" parent="r7IaGhq_1LEt5sb4c37m-235">
          <mxGeometry y="242" width="160" height="10" as="geometry"/>
        </mxCell>
        <mxCell id="r7IaGhq_1LEt5sb4c37m-245" value="" style="shape=partialRectangle;top=0;left=0;bottom=0;fillColor=none;align=left;verticalAlign=top;spacingLeft=4;spacingRight=4;overflow=hidden;rotatable=0;points=[];portConstraint=eastwest;part=1;fontSize=12;" vertex="1" connectable="0" parent="r7IaGhq_1LEt5sb4c37m-244">
          <mxGeometry width="30" height="10" as="geometry"/>
        </mxCell>
        <mxCell id="r7IaGhq_1LEt5sb4c37m-246" value="schedule" style="swimlane;fontStyle=0;childLayout=stackLayout;horizontal=1;startSize=26;fillColor=#e0e0e0;horizontalStack=0;resizeParent=1;resizeParentMax=0;resizeLast=0;collapsible=1;marginBottom=0;swimlaneFillColor=#ffffff;align=center;fontSize=14;" vertex="1" parent="1">
          <mxGeometry x="201" y="1207.5" width="160" height="170" as="geometry"/>
        </mxCell>
        <mxCell id="r7IaGhq_1LEt5sb4c37m-247" value="schedule_id" style="shape=partialRectangle;top=0;left=0;right=0;bottom=0;align=left;verticalAlign=middle;fillColor=none;spacingLeft=34;spacingRight=4;overflow=hidden;rotatable=0;points=[[0,0.5],[1,0.5]];portConstraint=eastwest;dropTarget=0;fontStyle=5;fontSize=12;" vertex="1" parent="r7IaGhq_1LEt5sb4c37m-246">
          <mxGeometry y="26" width="160" height="30" as="geometry"/>
        </mxCell>
        <mxCell id="r7IaGhq_1LEt5sb4c37m-248" value="PK" style="shape=partialRectangle;top=0;left=0;bottom=0;fillColor=none;align=left;verticalAlign=middle;spacingLeft=4;spacingRight=4;overflow=hidden;rotatable=0;points=[];portConstraint=eastwest;part=1;fontSize=12;" vertex="1" connectable="0" parent="r7IaGhq_1LEt5sb4c37m-247">
          <mxGeometry width="30" height="30" as="geometry"/>
        </mxCell>
        <mxCell id="r7IaGhq_1LEt5sb4c37m-376" value="line_id" style="shape=partialRectangle;top=0;left=0;right=0;bottom=0;align=left;verticalAlign=top;fillColor=none;spacingLeft=34;spacingRight=4;overflow=hidden;rotatable=0;points=[[0,0.5],[1,0.5]];portConstraint=eastwest;dropTarget=0;fontSize=12;fontStyle=5" vertex="1" parent="r7IaGhq_1LEt5sb4c37m-246">
          <mxGeometry y="56" width="160" height="26" as="geometry"/>
        </mxCell>
        <mxCell id="r7IaGhq_1LEt5sb4c37m-377" value="FK" style="shape=partialRectangle;top=0;left=0;bottom=0;fillColor=none;align=left;verticalAlign=top;spacingLeft=4;spacingRight=4;overflow=hidden;rotatable=0;points=[];portConstraint=eastwest;part=1;fontSize=12;" vertex="1" connectable="0" parent="r7IaGhq_1LEt5sb4c37m-376">
          <mxGeometry width="30" height="26" as="geometry"/>
        </mxCell>
        <mxCell id="r7IaGhq_1LEt5sb4c37m-378" value="form_hub_id" style="shape=partialRectangle;top=0;left=0;right=0;bottom=0;align=left;verticalAlign=top;fillColor=none;spacingLeft=34;spacingRight=4;overflow=hidden;rotatable=0;points=[[0,0.5],[1,0.5]];portConstraint=eastwest;dropTarget=0;fontSize=12;fontStyle=5" vertex="1" parent="r7IaGhq_1LEt5sb4c37m-246">
          <mxGeometry y="82" width="160" height="26" as="geometry"/>
        </mxCell>
        <mxCell id="r7IaGhq_1LEt5sb4c37m-379" value="FK" style="shape=partialRectangle;top=0;left=0;bottom=0;fillColor=none;align=left;verticalAlign=top;spacingLeft=4;spacingRight=4;overflow=hidden;rotatable=0;points=[];portConstraint=eastwest;part=1;fontSize=12;" vertex="1" connectable="0" parent="r7IaGhq_1LEt5sb4c37m-378">
          <mxGeometry width="30" height="26" as="geometry"/>
        </mxCell>
        <mxCell id="r7IaGhq_1LEt5sb4c37m-380" value="to_hub_id" style="shape=partialRectangle;top=0;left=0;right=0;bottom=1;align=left;verticalAlign=top;fillColor=none;spacingLeft=34;spacingRight=4;overflow=hidden;rotatable=0;points=[[0,0.5],[1,0.5]];portConstraint=eastwest;dropTarget=0;fontSize=12;fontStyle=5" vertex="1" parent="r7IaGhq_1LEt5sb4c37m-246">
          <mxGeometry y="108" width="160" height="26" as="geometry"/>
        </mxCell>
        <mxCell id="r7IaGhq_1LEt5sb4c37m-381" value="FK" style="shape=partialRectangle;top=0;left=0;bottom=0;fillColor=none;align=left;verticalAlign=top;spacingLeft=4;spacingRight=4;overflow=hidden;rotatable=0;points=[];portConstraint=eastwest;part=1;fontSize=12;" vertex="1" connectable="0" parent="r7IaGhq_1LEt5sb4c37m-380">
          <mxGeometry width="30" height="26" as="geometry"/>
        </mxCell>
        <mxCell id="r7IaGhq_1LEt5sb4c37m-251" value="day" style="shape=partialRectangle;top=0;left=0;right=0;bottom=0;align=left;verticalAlign=top;fillColor=none;spacingLeft=34;spacingRight=4;overflow=hidden;rotatable=0;points=[[0,0.5],[1,0.5]];portConstraint=eastwest;dropTarget=0;fontSize=12;" vertex="1" parent="r7IaGhq_1LEt5sb4c37m-246">
          <mxGeometry y="134" width="160" height="26" as="geometry"/>
        </mxCell>
        <mxCell id="r7IaGhq_1LEt5sb4c37m-252" value="" style="shape=partialRectangle;top=0;left=0;bottom=0;fillColor=none;align=left;verticalAlign=top;spacingLeft=4;spacingRight=4;overflow=hidden;rotatable=0;points=[];portConstraint=eastwest;part=1;fontSize=12;" vertex="1" connectable="0" parent="r7IaGhq_1LEt5sb4c37m-251">
          <mxGeometry width="30" height="26" as="geometry"/>
        </mxCell>
        <mxCell id="r7IaGhq_1LEt5sb4c37m-255" value="" style="shape=partialRectangle;top=0;left=0;right=0;bottom=0;align=left;verticalAlign=top;fillColor=none;spacingLeft=34;spacingRight=4;overflow=hidden;rotatable=0;points=[[0,0.5],[1,0.5]];portConstraint=eastwest;dropTarget=0;fontSize=12;" vertex="1" parent="r7IaGhq_1LEt5sb4c37m-246">
          <mxGeometry y="160" width="160" height="10" as="geometry"/>
        </mxCell>
        <mxCell id="r7IaGhq_1LEt5sb4c37m-256" value="" style="shape=partialRectangle;top=0;left=0;bottom=0;fillColor=none;align=left;verticalAlign=top;spacingLeft=4;spacingRight=4;overflow=hidden;rotatable=0;points=[];portConstraint=eastwest;part=1;fontSize=12;" vertex="1" connectable="0" parent="r7IaGhq_1LEt5sb4c37m-255">
          <mxGeometry width="30" height="10" as="geometry"/>
        </mxCell>
        <mxCell id="r7IaGhq_1LEt5sb4c37m-257" value="line" style="swimlane;fontStyle=0;childLayout=stackLayout;horizontal=1;startSize=26;fillColor=#e0e0e0;horizontalStack=0;resizeParent=1;resizeParentMax=0;resizeLast=0;collapsible=1;marginBottom=0;swimlaneFillColor=#ffffff;align=center;fontSize=14;" vertex="1" parent="1">
          <mxGeometry x="191" y="1430" width="160" height="144" as="geometry"/>
        </mxCell>
        <mxCell id="r7IaGhq_1LEt5sb4c37m-258" value="line_id" style="shape=partialRectangle;top=0;left=0;right=0;bottom=1;align=left;verticalAlign=middle;fillColor=none;spacingLeft=34;spacingRight=4;overflow=hidden;rotatable=0;points=[[0,0.5],[1,0.5]];portConstraint=eastwest;dropTarget=0;fontStyle=5;fontSize=12;" vertex="1" parent="r7IaGhq_1LEt5sb4c37m-257">
          <mxGeometry y="26" width="160" height="30" as="geometry"/>
        </mxCell>
        <mxCell id="r7IaGhq_1LEt5sb4c37m-259" value="PK" style="shape=partialRectangle;top=0;left=0;bottom=0;fillColor=none;align=left;verticalAlign=middle;spacingLeft=4;spacingRight=4;overflow=hidden;rotatable=0;points=[];portConstraint=eastwest;part=1;fontSize=12;" vertex="1" connectable="0" parent="r7IaGhq_1LEt5sb4c37m-258">
          <mxGeometry width="30" height="30" as="geometry"/>
        </mxCell>
        <mxCell id="r7IaGhq_1LEt5sb4c37m-260" value="type" style="shape=partialRectangle;top=0;left=0;right=0;bottom=0;align=left;verticalAlign=top;fillColor=none;spacingLeft=34;spacingRight=4;overflow=hidden;rotatable=0;points=[[0,0.5],[1,0.5]];portConstraint=eastwest;dropTarget=0;fontSize=12;" vertex="1" parent="r7IaGhq_1LEt5sb4c37m-257">
          <mxGeometry y="56" width="160" height="26" as="geometry"/>
        </mxCell>
        <mxCell id="r7IaGhq_1LEt5sb4c37m-261" value="" style="shape=partialRectangle;top=0;left=0;bottom=0;fillColor=none;align=left;verticalAlign=top;spacingLeft=4;spacingRight=4;overflow=hidden;rotatable=0;points=[];portConstraint=eastwest;part=1;fontSize=12;" vertex="1" connectable="0" parent="r7IaGhq_1LEt5sb4c37m-260">
          <mxGeometry width="30" height="26" as="geometry"/>
        </mxCell>
        <mxCell id="r7IaGhq_1LEt5sb4c37m-262" value="mirror" style="shape=partialRectangle;top=0;left=0;right=0;bottom=0;align=left;verticalAlign=top;fillColor=none;spacingLeft=34;spacingRight=4;overflow=hidden;rotatable=0;points=[[0,0.5],[1,0.5]];portConstraint=eastwest;dropTarget=0;fontSize=12;" vertex="1" parent="r7IaGhq_1LEt5sb4c37m-257">
          <mxGeometry y="82" width="160" height="26" as="geometry"/>
        </mxCell>
        <mxCell id="r7IaGhq_1LEt5sb4c37m-263" value="" style="shape=partialRectangle;top=0;left=0;bottom=0;fillColor=none;align=left;verticalAlign=top;spacingLeft=4;spacingRight=4;overflow=hidden;rotatable=0;points=[];portConstraint=eastwest;part=1;fontSize=12;" vertex="1" connectable="0" parent="r7IaGhq_1LEt5sb4c37m-262">
          <mxGeometry width="30" height="26" as="geometry"/>
        </mxCell>
        <mxCell id="r7IaGhq_1LEt5sb4c37m-264" value="cost" style="shape=partialRectangle;top=0;left=0;right=0;bottom=0;align=left;verticalAlign=top;fillColor=none;spacingLeft=34;spacingRight=4;overflow=hidden;rotatable=0;points=[[0,0.5],[1,0.5]];portConstraint=eastwest;dropTarget=0;fontSize=12;" vertex="1" parent="r7IaGhq_1LEt5sb4c37m-257">
          <mxGeometry y="108" width="160" height="26" as="geometry"/>
        </mxCell>
        <mxCell id="r7IaGhq_1LEt5sb4c37m-265" value="" style="shape=partialRectangle;top=0;left=0;bottom=0;fillColor=none;align=left;verticalAlign=top;spacingLeft=4;spacingRight=4;overflow=hidden;rotatable=0;points=[];portConstraint=eastwest;part=1;fontSize=12;" vertex="1" connectable="0" parent="r7IaGhq_1LEt5sb4c37m-264">
          <mxGeometry width="30" height="26" as="geometry"/>
        </mxCell>
        <mxCell id="r7IaGhq_1LEt5sb4c37m-266" value="" style="shape=partialRectangle;top=0;left=0;right=0;bottom=0;align=left;verticalAlign=top;fillColor=none;spacingLeft=34;spacingRight=4;overflow=hidden;rotatable=0;points=[[0,0.5],[1,0.5]];portConstraint=eastwest;dropTarget=0;fontSize=12;" vertex="1" parent="r7IaGhq_1LEt5sb4c37m-257">
          <mxGeometry y="134" width="160" height="10" as="geometry"/>
        </mxCell>
        <mxCell id="r7IaGhq_1LEt5sb4c37m-267" value="" style="shape=partialRectangle;top=0;left=0;bottom=0;fillColor=none;align=left;verticalAlign=top;spacingLeft=4;spacingRight=4;overflow=hidden;rotatable=0;points=[];portConstraint=eastwest;part=1;fontSize=12;" vertex="1" connectable="0" parent="r7IaGhq_1LEt5sb4c37m-266">
          <mxGeometry width="30" height="10" as="geometry"/>
        </mxCell>
        <mxCell id="r7IaGhq_1LEt5sb4c37m-279" value="priority" style="swimlane;fontStyle=0;childLayout=stackLayout;horizontal=1;startSize=26;fillColor=#e0e0e0;horizontalStack=0;resizeParent=1;resizeParentMax=0;resizeLast=0;collapsible=1;marginBottom=0;swimlaneFillColor=#ffffff;align=center;fontSize=14;" vertex="1" parent="1">
          <mxGeometry x="1121" y="341.5" width="160" height="118" as="geometry"/>
        </mxCell>
        <mxCell id="r7IaGhq_1LEt5sb4c37m-280" value="priority_id" style="shape=partialRectangle;top=0;left=0;right=0;bottom=1;align=left;verticalAlign=middle;fillColor=none;spacingLeft=34;spacingRight=4;overflow=hidden;rotatable=0;points=[[0,0.5],[1,0.5]];portConstraint=eastwest;dropTarget=0;fontStyle=5;fontSize=12;" vertex="1" parent="r7IaGhq_1LEt5sb4c37m-279">
          <mxGeometry y="26" width="160" height="30" as="geometry"/>
        </mxCell>
        <mxCell id="r7IaGhq_1LEt5sb4c37m-281" value="PK" style="shape=partialRectangle;top=0;left=0;bottom=0;fillColor=none;align=left;verticalAlign=middle;spacingLeft=4;spacingRight=4;overflow=hidden;rotatable=0;points=[];portConstraint=eastwest;part=1;fontSize=12;" vertex="1" connectable="0" parent="r7IaGhq_1LEt5sb4c37m-280">
          <mxGeometry width="30" height="30" as="geometry"/>
        </mxCell>
        <mxCell id="r7IaGhq_1LEt5sb4c37m-282" value="name" style="shape=partialRectangle;top=0;left=0;right=0;bottom=0;align=left;verticalAlign=top;fillColor=none;spacingLeft=34;spacingRight=4;overflow=hidden;rotatable=0;points=[[0,0.5],[1,0.5]];portConstraint=eastwest;dropTarget=0;fontSize=12;" vertex="1" parent="r7IaGhq_1LEt5sb4c37m-279">
          <mxGeometry y="56" width="160" height="26" as="geometry"/>
        </mxCell>
        <mxCell id="r7IaGhq_1LEt5sb4c37m-283" value="" style="shape=partialRectangle;top=0;left=0;bottom=0;fillColor=none;align=left;verticalAlign=top;spacingLeft=4;spacingRight=4;overflow=hidden;rotatable=0;points=[];portConstraint=eastwest;part=1;fontSize=12;" vertex="1" connectable="0" parent="r7IaGhq_1LEt5sb4c37m-282">
          <mxGeometry width="30" height="26" as="geometry"/>
        </mxCell>
        <mxCell id="r7IaGhq_1LEt5sb4c37m-284" value="rank" style="shape=partialRectangle;top=0;left=0;right=0;bottom=0;align=left;verticalAlign=top;fillColor=none;spacingLeft=34;spacingRight=4;overflow=hidden;rotatable=0;points=[[0,0.5],[1,0.5]];portConstraint=eastwest;dropTarget=0;fontSize=12;" vertex="1" parent="r7IaGhq_1LEt5sb4c37m-279">
          <mxGeometry y="82" width="160" height="26" as="geometry"/>
        </mxCell>
        <mxCell id="r7IaGhq_1LEt5sb4c37m-285" value="" style="shape=partialRectangle;top=0;left=0;bottom=0;fillColor=none;align=left;verticalAlign=top;spacingLeft=4;spacingRight=4;overflow=hidden;rotatable=0;points=[];portConstraint=eastwest;part=1;fontSize=12;" vertex="1" connectable="0" parent="r7IaGhq_1LEt5sb4c37m-284">
          <mxGeometry width="30" height="26" as="geometry"/>
        </mxCell>
        <mxCell id="r7IaGhq_1LEt5sb4c37m-288" value="" style="shape=partialRectangle;top=0;left=0;right=0;bottom=0;align=left;verticalAlign=top;fillColor=none;spacingLeft=34;spacingRight=4;overflow=hidden;rotatable=0;points=[[0,0.5],[1,0.5]];portConstraint=eastwest;dropTarget=0;fontSize=12;" vertex="1" parent="r7IaGhq_1LEt5sb4c37m-279">
          <mxGeometry y="108" width="160" height="10" as="geometry"/>
        </mxCell>
        <mxCell id="r7IaGhq_1LEt5sb4c37m-289" value="" style="shape=partialRectangle;top=0;left=0;bottom=0;fillColor=none;align=left;verticalAlign=top;spacingLeft=4;spacingRight=4;overflow=hidden;rotatable=0;points=[];portConstraint=eastwest;part=1;fontSize=12;" vertex="1" connectable="0" parent="r7IaGhq_1LEt5sb4c37m-288">
          <mxGeometry width="30" height="10" as="geometry"/>
        </mxCell>
        <mxCell id="r7IaGhq_1LEt5sb4c37m-316" style="edgeStyle=orthogonalEdgeStyle;rounded=0;orthogonalLoop=1;jettySize=auto;html=1;exitX=0.5;exitY=0;exitDx=0;exitDy=0;entryX=0.516;entryY=1.079;entryDx=0;entryDy=0;entryPerimeter=0;endArrow=ERmany;endFill=0;startArrow=ERone;startFill=0;" edge="1" parent="1" source="r7IaGhq_1LEt5sb4c37m-298" target="r7IaGhq_1LEt5sb4c37m-133">
          <mxGeometry relative="1" as="geometry"/>
        </mxCell>
        <mxCell id="r7IaGhq_1LEt5sb4c37m-355" style="edgeStyle=orthogonalEdgeStyle;rounded=0;orthogonalLoop=1;jettySize=auto;html=1;exitX=0.75;exitY=0;exitDx=0;exitDy=0;entryX=0;entryY=0.5;entryDx=0;entryDy=0;startArrow=ERone;startFill=0;endArrow=ERmany;endFill=0;" edge="1" parent="1" source="r7IaGhq_1LEt5sb4c37m-298" target="r7IaGhq_1LEt5sb4c37m-357">
          <mxGeometry relative="1" as="geometry">
            <Array as="points">
              <mxPoint x="245" y="754.5"/>
            </Array>
          </mxGeometry>
        </mxCell>
        <mxCell id="r7IaGhq_1LEt5sb4c37m-298" value="warehouse_scope" style="swimlane;fontStyle=0;childLayout=stackLayout;horizontal=1;startSize=26;fillColor=#e0e0e0;horizontalStack=0;resizeParent=1;resizeParentMax=0;resizeLast=0;collapsible=1;marginBottom=0;swimlaneFillColor=#ffffff;align=center;fontSize=14;" vertex="1" parent="1">
          <mxGeometry x="121" y="777.5" width="165" height="170" as="geometry"/>
        </mxCell>
        <mxCell id="r7IaGhq_1LEt5sb4c37m-299" value="warehouse_scope_id" style="shape=partialRectangle;top=0;left=0;right=0;bottom=0;align=left;verticalAlign=middle;fillColor=none;spacingLeft=34;spacingRight=4;overflow=hidden;rotatable=0;points=[[0,0.5],[1,0.5]];portConstraint=eastwest;dropTarget=0;fontStyle=5;fontSize=12;" vertex="1" parent="r7IaGhq_1LEt5sb4c37m-298">
          <mxGeometry y="26" width="165" height="30" as="geometry"/>
        </mxCell>
        <mxCell id="r7IaGhq_1LEt5sb4c37m-300" value="PK" style="shape=partialRectangle;top=0;left=0;bottom=0;fillColor=none;align=left;verticalAlign=middle;spacingLeft=4;spacingRight=4;overflow=hidden;rotatable=0;points=[];portConstraint=eastwest;part=1;fontSize=12;" vertex="1" connectable="0" parent="r7IaGhq_1LEt5sb4c37m-299">
          <mxGeometry width="30" height="30" as="geometry"/>
        </mxCell>
        <mxCell id="r7IaGhq_1LEt5sb4c37m-301" value="warehouse_id" style="shape=partialRectangle;top=0;left=0;right=0;bottom=0;align=left;verticalAlign=top;fillColor=none;spacingLeft=34;spacingRight=4;overflow=hidden;rotatable=0;points=[[0,0.5],[1,0.5]];portConstraint=eastwest;dropTarget=0;fontSize=12;fontStyle=5" vertex="1" parent="r7IaGhq_1LEt5sb4c37m-298">
          <mxGeometry y="56" width="165" height="26" as="geometry"/>
        </mxCell>
        <mxCell id="r7IaGhq_1LEt5sb4c37m-302" value="FK" style="shape=partialRectangle;top=0;left=0;bottom=0;fillColor=none;align=left;verticalAlign=top;spacingLeft=4;spacingRight=4;overflow=hidden;rotatable=0;points=[];portConstraint=eastwest;part=1;fontSize=12;" vertex="1" connectable="0" parent="r7IaGhq_1LEt5sb4c37m-301">
          <mxGeometry width="30" height="26" as="geometry"/>
        </mxCell>
        <mxCell id="r7IaGhq_1LEt5sb4c37m-303" value="warehouse_hub_id" style="shape=partialRectangle;top=0;left=0;right=0;bottom=0;align=left;verticalAlign=top;fillColor=none;spacingLeft=34;spacingRight=4;overflow=hidden;rotatable=0;points=[[0,0.5],[1,0.5]];portConstraint=eastwest;dropTarget=0;fontSize=12;fontStyle=5" vertex="1" parent="r7IaGhq_1LEt5sb4c37m-298">
          <mxGeometry y="82" width="165" height="26" as="geometry"/>
        </mxCell>
        <mxCell id="r7IaGhq_1LEt5sb4c37m-304" value="FK" style="shape=partialRectangle;top=0;left=0;bottom=0;fillColor=none;align=left;verticalAlign=top;spacingLeft=4;spacingRight=4;overflow=hidden;rotatable=0;points=[];portConstraint=eastwest;part=1;fontSize=12;" vertex="1" connectable="0" parent="r7IaGhq_1LEt5sb4c37m-303">
          <mxGeometry width="30" height="26" as="geometry"/>
        </mxCell>
        <mxCell id="r7IaGhq_1LEt5sb4c37m-305" value="branch_id" style="shape=partialRectangle;top=0;left=0;right=0;bottom=0;align=left;verticalAlign=top;fillColor=none;spacingLeft=34;spacingRight=4;overflow=hidden;rotatable=0;points=[[0,0.5],[1,0.5]];portConstraint=eastwest;dropTarget=0;fontSize=12;fontStyle=5" vertex="1" parent="r7IaGhq_1LEt5sb4c37m-298">
          <mxGeometry y="108" width="165" height="26" as="geometry"/>
        </mxCell>
        <mxCell id="r7IaGhq_1LEt5sb4c37m-306" value="FK" style="shape=partialRectangle;top=0;left=0;bottom=0;fillColor=none;align=left;verticalAlign=top;spacingLeft=4;spacingRight=4;overflow=hidden;rotatable=0;points=[];portConstraint=eastwest;part=1;fontSize=12;" vertex="1" connectable="0" parent="r7IaGhq_1LEt5sb4c37m-305">
          <mxGeometry width="30" height="26" as="geometry"/>
        </mxCell>
        <mxCell id="r7IaGhq_1LEt5sb4c37m-309" value="branch_hub_id" style="shape=partialRectangle;top=0;left=0;right=0;bottom=1;align=left;verticalAlign=top;fillColor=none;spacingLeft=34;spacingRight=4;overflow=hidden;rotatable=0;points=[[0,0.5],[1,0.5]];portConstraint=eastwest;dropTarget=0;fontSize=12;fontStyle=5" vertex="1" parent="r7IaGhq_1LEt5sb4c37m-298">
          <mxGeometry y="134" width="165" height="26" as="geometry"/>
        </mxCell>
        <mxCell id="r7IaGhq_1LEt5sb4c37m-310" value="FK" style="shape=partialRectangle;top=0;left=0;bottom=0;fillColor=none;align=left;verticalAlign=top;spacingLeft=4;spacingRight=4;overflow=hidden;rotatable=0;points=[];portConstraint=eastwest;part=1;fontSize=12;" vertex="1" connectable="0" parent="r7IaGhq_1LEt5sb4c37m-309">
          <mxGeometry width="30" height="26" as="geometry"/>
        </mxCell>
        <mxCell id="r7IaGhq_1LEt5sb4c37m-307" value="" style="shape=partialRectangle;top=0;left=0;right=0;bottom=0;align=left;verticalAlign=top;fillColor=none;spacingLeft=34;spacingRight=4;overflow=hidden;rotatable=0;points=[[0,0.5],[1,0.5]];portConstraint=eastwest;dropTarget=0;fontSize=12;" vertex="1" parent="r7IaGhq_1LEt5sb4c37m-298">
          <mxGeometry y="160" width="165" height="10" as="geometry"/>
        </mxCell>
        <mxCell id="r7IaGhq_1LEt5sb4c37m-308" value="" style="shape=partialRectangle;top=0;left=0;bottom=0;fillColor=none;align=left;verticalAlign=top;spacingLeft=4;spacingRight=4;overflow=hidden;rotatable=0;points=[];portConstraint=eastwest;part=1;fontSize=12;" vertex="1" connectable="0" parent="r7IaGhq_1LEt5sb4c37m-307">
          <mxGeometry width="30" height="10" as="geometry"/>
        </mxCell>
        <mxCell id="r7IaGhq_1LEt5sb4c37m-313" style="edgeStyle=orthogonalEdgeStyle;rounded=0;orthogonalLoop=1;jettySize=auto;html=1;exitX=0;exitY=0.5;exitDx=0;exitDy=0;entryX=1;entryY=0.5;entryDx=0;entryDy=0;startArrow=ERone;startFill=0;endArrow=ERone;endFill=0;" edge="1" parent="1" source="r7IaGhq_1LEt5sb4c37m-114" target="r7IaGhq_1LEt5sb4c37m-103">
          <mxGeometry relative="1" as="geometry"/>
        </mxCell>
        <mxCell id="r7IaGhq_1LEt5sb4c37m-314" style="edgeStyle=orthogonalEdgeStyle;rounded=0;orthogonalLoop=1;jettySize=auto;html=1;exitX=1;exitY=0.5;exitDx=0;exitDy=0;entryX=0;entryY=0.5;entryDx=0;entryDy=0;startArrow=ERone;startFill=0;endArrow=ERone;endFill=0;" edge="1" parent="1" source="r7IaGhq_1LEt5sb4c37m-125" target="r7IaGhq_1LEt5sb4c37m-105">
          <mxGeometry relative="1" as="geometry"/>
        </mxCell>
        <mxCell id="r7IaGhq_1LEt5sb4c37m-353" value="" style="edgeStyle=orthogonalEdgeStyle;rounded=0;orthogonalLoop=1;jettySize=auto;html=1;startArrow=ERmany;startFill=0;endArrow=ERone;endFill=0;" edge="1" parent="1" source="r7IaGhq_1LEt5sb4c37m-2" target="r7IaGhq_1LEt5sb4c37m-35">
          <mxGeometry relative="1" as="geometry">
            <Array as="points">
              <mxPoint x="551" y="151.5"/>
              <mxPoint x="551" y="151.5"/>
            </Array>
          </mxGeometry>
        </mxCell>
        <mxCell id="r7IaGhq_1LEt5sb4c37m-354" style="edgeStyle=orthogonalEdgeStyle;rounded=0;orthogonalLoop=1;jettySize=auto;html=1;exitX=1;exitY=0.5;exitDx=0;exitDy=0;entryX=0;entryY=0.5;entryDx=0;entryDy=0;startArrow=ERmany;startFill=0;endArrow=ERone;endFill=0;" edge="1" parent="1" source="r7IaGhq_1LEt5sb4c37m-105" target="r7IaGhq_1LEt5sb4c37m-136">
          <mxGeometry relative="1" as="geometry">
            <Array as="points">
              <mxPoint x="541" y="676.5"/>
              <mxPoint x="541" y="775.5"/>
            </Array>
          </mxGeometry>
        </mxCell>
        <mxCell id="r7IaGhq_1LEt5sb4c37m-356" style="edgeStyle=orthogonalEdgeStyle;rounded=0;orthogonalLoop=1;jettySize=auto;html=1;exitX=1;exitY=0.5;exitDx=0;exitDy=0;entryX=0;entryY=0.5;entryDx=0;entryDy=0;startArrow=ERmany;startFill=0;endArrow=ERone;endFill=0;" edge="1" parent="1" source="r7IaGhq_1LEt5sb4c37m-181" target="r7IaGhq_1LEt5sb4c37m-280">
          <mxGeometry relative="1" as="geometry"/>
        </mxCell>
        <mxCell id="r7IaGhq_1LEt5sb4c37m-359" style="edgeStyle=orthogonalEdgeStyle;rounded=0;orthogonalLoop=1;jettySize=auto;html=1;exitX=1;exitY=0.5;exitDx=0;exitDy=0;entryX=0;entryY=0.5;entryDx=0;entryDy=0;startArrow=ERone;startFill=0;endArrow=ERone;endFill=0;" edge="1" parent="1" source="r7IaGhq_1LEt5sb4c37m-323" target="r7IaGhq_1LEt5sb4c37m-192">
          <mxGeometry relative="1" as="geometry"/>
        </mxCell>
        <mxCell id="r7IaGhq_1LEt5sb4c37m-362" style="edgeStyle=orthogonalEdgeStyle;rounded=0;orthogonalLoop=1;jettySize=auto;html=1;exitX=1;exitY=0.5;exitDx=0;exitDy=0;startArrow=ERmany;startFill=0;endArrow=ERone;endFill=0;entryX=0;entryY=0.5;entryDx=0;entryDy=0;" edge="1" parent="1" source="r7IaGhq_1LEt5sb4c37m-74" target="r7IaGhq_1LEt5sb4c37m-323">
          <mxGeometry relative="1" as="geometry">
            <mxPoint x="971" y="451.5" as="targetPoint"/>
            <Array as="points">
              <mxPoint x="341" y="351.5"/>
              <mxPoint x="341" y="412.5"/>
            </Array>
          </mxGeometry>
        </mxCell>
        <mxCell id="r7IaGhq_1LEt5sb4c37m-364" style="edgeStyle=orthogonalEdgeStyle;rounded=0;orthogonalLoop=1;jettySize=auto;html=1;exitX=0.75;exitY=0;exitDx=0;exitDy=0;entryX=0.553;entryY=0.942;entryDx=0;entryDy=0;startArrow=ERmany;startFill=0;endArrow=ERone;endFill=0;entryPerimeter=0;" edge="1" parent="1" source="r7IaGhq_1LEt5sb4c37m-224" target="r7IaGhq_1LEt5sb4c37m-200">
          <mxGeometry relative="1" as="geometry">
            <Array as="points">
              <mxPoint x="1209" y="820"/>
            </Array>
          </mxGeometry>
        </mxCell>
        <mxCell id="r7IaGhq_1LEt5sb4c37m-366" style="edgeStyle=orthogonalEdgeStyle;rounded=0;orthogonalLoop=1;jettySize=auto;html=1;exitX=0;exitY=0.5;exitDx=0;exitDy=0;entryX=1;entryY=0.5;entryDx=0;entryDy=0;startArrow=ERmany;startFill=0;endArrow=ERone;endFill=0;" edge="1" parent="1" source="r7IaGhq_1LEt5sb4c37m-24" target="r7IaGhq_1LEt5sb4c37m-339">
          <mxGeometry relative="1" as="geometry">
            <Array as="points">
              <mxPoint x="140" y="293"/>
              <mxPoint x="90" y="293"/>
              <mxPoint x="90" y="53"/>
              <mxPoint x="1370" y="53"/>
              <mxPoint x="1370" y="558"/>
              <mxPoint x="1280" y="558"/>
            </Array>
          </mxGeometry>
        </mxCell>
      </root>
    </mxGraphModel>
  </diagram>
</mxfile>
